<svg width="70" height="25" viewBox="0 0 70 25" fill="none" xmlns="http://www.w3.org/2000/svg">
<path d="M11.5091 2.039H11.663C19.6875 20.4184 20.2261 21.4627 20.2261 21.4627C21.3693 24.0019 22.4466 24.0349 23.0732 24.0899V24.3427H11.9818V24.0899C14.521 24.0899 12.6193 20.3854 12.6193 20.3854L11.608 18.1979H5.38631C4.74874 19.6599 5.32035 24.0899 9.12374 24.0899V24.3427H0V24.0899C0.956344 24.0239 2.66018 23.7711 5.1005 18.1979L11.5091 2.039ZM8.3103 10.789L5.48524 17.9231H11.4761L8.3103 10.789Z" fill="#3B3B42"/>
<path d="M31.1521 24.1009V24.3538H23.2266V24.1009C24.4357 23.7492 24.4577 22.4191 24.4577 20.7702V4.3255C24.4577 3.21527 24.073 2.77557 22.7759 2.2919V2.03907L29.844 0.708984V20.7702C29.844 22.518 29.9979 23.7822 31.1411 24.1009H31.1521Z" fill="#3B3B42"/>
<path d="M39.9361 24.1009V24.3537H32.0105V24.1009C33.2197 23.7491 33.2416 22.3861 33.2416 20.7702V13.0315C33.2416 11.9212 32.8899 11.4815 31.5928 10.9979V10.745L38.6279 9.41495V20.7592C38.6279 22.507 38.7818 23.7711 39.9251 24.0899L39.9361 24.1009ZM32.5821 5.58957C32.5821 3.90772 33.9122 2.57764 35.594 2.57764C37.2759 2.57764 38.6389 3.90772 38.6389 5.58957C38.6389 7.27142 37.2759 8.60151 35.594 8.60151C33.9122 8.60151 32.5821 7.27142 32.5821 5.58957Z" fill="#3B3B42"/>
<path d="M51.5654 22.9247C51.5654 22.9247 50.3562 24.6396 46.6847 24.6396C43.0133 24.6396 41.0456 23.5623 41.0456 23.5623V19.4071H41.3314C41.969 22.3531 44.5962 24.3538 46.6847 24.3538C48.9382 24.3538 49.4438 21.7266 47.0365 20.1436L43.8377 18.209C40.8587 16.2413 40.0673 13.1085 42.0019 10.9539C42.0019 10.9539 43.1781 9.43698 46.7837 9.43698C50.3892 9.43698 51.9501 10.3274 51.9501 10.3274V13.5592H51.6643C51.0927 10.7121 48.6194 9.72278 46.7837 9.72278C44.7281 9.72278 43.7388 11.7784 46.4979 13.5262L49.6967 15.5268C52.5767 17.2746 53.3132 20.8472 51.5654 22.9467V22.9247Z" fill="#3B3B42"/>
<path d="M69.9887 22.3203C69.549 23.7163 67.9002 24.6287 65.8995 24.6287C65.8995 24.6287 62.382 24.6287 62.0961 21.7816C61.6784 23.4305 60.0625 24.6287 57.8201 24.6287C56.6109 24.6287 53.8628 24.09 53.8628 21.3969C53.8628 18.2311 56.435 17.6265 62.0742 16.2964V14.2628C62.0742 10.965 60.2054 9.19525 58.0179 10.3275C58.0179 10.3275 57.3254 10.7342 58.4027 11.1189C58.9413 11.3058 59.2931 11.7565 59.5459 12.3281C60.0186 13.5043 59.4799 14.7684 58.3147 15.2741C57.1715 15.7138 55.8744 15.1752 55.4017 14.0429C55.083 13.2185 55.2478 12.2731 55.7865 11.7015C56.1712 11.2838 56.7318 10.7232 57.908 10.0856C59.337 9.32716 60.887 9.4151 60.887 9.4151C65.0421 9.4151 67.3505 12.0093 67.3505 15.7578V20.4845C67.3505 20.4845 67.3505 22.7709 68.8675 22.705C68.8675 22.705 69.659 22.705 69.8129 22.1664L69.9997 22.3203H69.9887ZM62.0632 16.6152C59.4689 17.1868 59.4909 19.1214 59.4909 20.6054C59.4909 20.6054 59.458 22.694 60.7221 22.694C61.2607 22.694 61.7004 22.2543 62.0522 21.4848V16.6042L62.0632 16.6152Z" fill="#3B3B42"/>
</svg>
