<svg width="132" height="34" viewBox="0 0 132 34" fill="none" xmlns="http://www.w3.org/2000/svg">
<path d="M64.8916 20.1282C64.8916 12.8885 54.3556 15.184 54.3556 11.0638C54.3556 9.3863 55.5623 8.59169 57.1809 8.65055C58.9467 8.67998 60.0356 9.73946 60.1239 11.0932H64.6561C64.3912 7.38506 61.5071 5.23668 57.2986 5.23668C53.0607 5.23668 50.0589 7.47335 50.0589 11.1815C50.0294 18.6273 60.6242 15.9492 60.6242 20.3931C60.6242 21.8646 59.4764 22.8946 57.5341 22.8946C55.6211 22.8946 54.5322 21.8057 54.4145 20.1577H50C50.0589 24.0424 53.355 26.2791 57.6224 26.2791C62.3017 26.2791 64.8916 23.3655 64.8916 20.1282Z" fill="white"/>
<path d="M67.4041 17.8916C67.4041 22.8946 70.7886 26.3085 74.9088 26.3085C77.3809 26.3085 79.235 25.1313 80.2356 23.8364V33.8426H84.3852V9.76889H80.2356V11.8878C79.235 10.6224 77.4398 9.53345 74.9971 9.53345C70.7886 9.53345 67.4041 12.8885 67.4041 17.8916ZM80.2356 17.921C80.2356 21.07 78.0578 22.7181 75.9094 22.7181C73.7904 22.7181 71.6126 21.0406 71.6126 17.8916C71.6126 14.7426 73.7904 13.1239 75.9094 13.1239C78.0578 13.1239 80.2356 14.772 80.2356 17.921Z" fill="white"/>
<path d="M103.801 9.76889H99.6516V18.745C99.6516 21.3643 98.2389 22.7769 96.0022 22.7769C93.8244 22.7769 92.3824 21.3643 92.3824 18.745V9.76889H88.2622V19.3336C88.2622 23.807 90.9991 26.2791 94.7956 26.2791C96.8263 26.2791 98.6215 25.3962 99.6516 24.013V26.0731H103.801V9.76889Z" fill="white"/>
<path d="M107.866 26.0731H111.987V9.76889H107.866V26.0731ZM109.956 7.82651C111.398 7.82651 112.487 6.76703 112.487 5.41326C112.487 4.05948 111.398 3 109.956 3C108.484 3 107.425 4.05948 107.425 5.41326C107.425 6.76703 108.484 7.82651 109.956 7.82651Z" fill="white"/>
<path d="M114.998 17.8621C114.998 22.9535 118.294 26.338 122.444 26.338C125.004 26.338 126.829 25.1608 127.8 23.6598V26.0731H131.979V4.29492H127.8V12.035C126.682 10.5046 124.621 9.50402 122.473 9.50402C118.294 9.50402 114.998 12.7707 114.998 17.8621ZM127.829 17.921C127.829 21.0111 125.769 22.7181 123.503 22.7181C121.296 22.7181 119.206 20.9523 119.206 17.8621C119.206 14.772 121.296 13.1239 123.503 13.1239C125.769 13.1239 127.829 14.8308 127.829 17.921Z" fill="white"/>
<path d="M38.6885 19.9414C35.7245 17.0666 30.8972 17.1435 27.9288 20.1105L25.7447 22.2936L23.6091 20.1589L27.6673 16.1025C31.1543 12.6171 31.1543 6.94436 27.6673 3.459L26.8258 2.61786C25.1339 0.92899 22.8884 0 20.5 0C18.1116 0 15.8639 0.92899 14.1764 2.61786L13.3349 3.459C9.84791 6.94436 9.84791 12.6171 13.3349 16.1025L17.3931 20.1589L15.2574 22.2936L12.9855 20.0227C11.5024 18.5403 9.55568 17.8001 7.60675 17.8001C5.65782 17.8001 3.71109 18.5403 2.22797 20.0227C0.790997 21.4612 0 23.3697 0 25.4012C0 27.4327 0.790997 29.3411 2.22797 30.7775C3.66275 32.2116 5.57213 33 7.60675 33C9.64137 33 11.5507 32.2116 12.9855 30.7775L15.2574 28.5066L17.5843 30.8368C18.3621 31.6142 19.3948 32.0447 20.4956 32.0447C21.5964 32.0447 22.6313 31.6164 23.4091 30.8389L25.7447 28.5044L27.9288 30.6874C29.3965 32.1545 31.352 32.9627 33.4328 32.9627C35.5136 32.9627 37.2867 32.2138 38.6885 30.8565C40.1782 29.4114 41 27.4722 41 25.399C41 23.3258 40.1782 21.3865 38.6885 19.9414ZM9.87867 27.6698C9.27224 28.276 8.46586 28.6076 7.60675 28.6076C6.74764 28.6076 5.94126 28.2738 5.33483 27.6698C4.7284 27.0659 4.39443 26.2577 4.39443 25.399C4.39443 24.5403 4.7284 23.7343 5.33483 23.1281C5.94126 22.522 6.74764 22.1881 7.60675 22.1881C8.46586 22.1881 9.27224 22.522 9.87867 23.1281L12.1506 25.399L9.87867 27.6698ZM20.4978 27.5381L19.7156 26.7562L18.3621 25.4012L20.4758 23.2862L20.6516 23.4202L22.6313 25.399L20.4934 27.5359L20.4978 27.5381ZM21.9875 15.5688L20.5022 17.0534L16.4439 12.9971C14.6708 11.2247 14.6708 8.33895 16.4439 6.56442L17.2855 5.72328C18.1446 4.86457 19.2871 4.39019 20.5022 4.39019C21.7173 4.39019 22.8598 4.86237 23.7189 5.72328L24.5604 6.56442C26.3336 8.33675 26.3336 11.2225 24.5604 12.9971L21.9875 15.5688ZM35.63 27.705C35.0258 28.2914 34.2348 28.5813 33.4328 28.5813C32.5715 28.5813 31.7014 28.2474 31.0378 27.5842L28.8538 25.4012L31.0378 23.2182C32.3188 21.9378 34.3798 21.8829 35.63 23.0952C36.2606 23.7057 36.6078 24.5249 36.6078 25.4012C36.6078 26.2775 36.2606 27.0966 35.63 27.7072V27.705Z" fill="white"/>
</svg>
