<svg width="86" height="20" viewBox="0 0 86 20" fill="none" xmlns="http://www.w3.org/2000/svg">
<path d="M30.36 0.000234375V0.220234C29.27 0.220234 27.6 1.07023 25.61 5.87023L20.84 19.2102H19.86C17.32 13.2902 15.69 9.47023 14.6 6.99023L10.24 19.2102H9.26C2.37 3.14023 2.02 2.43023 2.02 2.43023C1.09 0.250234 0.71 0.270234 0 0.220234V0.000234375H8.51V0.220234C6.76 0.220234 8.16 3.38023 8.16 3.38023L12.28 12.7402L14.46 6.66023C12.8 2.79023 12.63 2.43023 12.63 2.43023C11.7 0.250234 11.32 0.270234 10.61 0.220234V0.000234375H19.12V0.220234C17.37 0.220234 18.77 3.38023 18.77 3.38023L22.86 12.7602L25.32 5.86023C26 3.92023 25.4 0.210234 22.62 0.210234V-0.00976562H30.37L30.36 0.000234375Z" fill="#3B3B42"/>
<path d="M38.67 0.000244141H38.81C45.71 15.8202 46.17 16.7202 46.17 16.7202C47.15 18.9002 48.08 18.9302 48.62 18.9802V19.2002H39.07V18.9802C41.25 18.9802 39.62 15.7902 39.62 15.7902L38.75 13.9102H33.4C32.85 15.1602 33.35 18.9802 36.62 18.9802V19.2002H28.76V18.9802C29.58 18.9202 31.05 18.7102 33.15 13.9102L38.67 0.000244141ZM35.91 7.53024L33.48 13.6702H38.64L35.91 7.53024Z" fill="#3B3B42"/>
<path d="M67.8601 0.000234375V0.220234C66.6901 0.220234 64.9401 1.07023 62.8101 5.87023L57.4401 19.2102H56.6501C49.3401 3.14023 48.9601 2.43023 48.9601 2.43023C47.9801 0.250234 47.5701 0.280234 46.8101 0.220234V0.000234375H55.8901V0.220234C54.0101 0.220234 55.5101 3.38023 55.5101 3.38023L59.7401 12.7902L62.5501 5.86023C63.3701 3.84023 62.8801 0.210234 59.6001 0.210234V-0.00976562H67.8601V0.000234375Z" fill="#3B3B42"/>
<path d="M85.18 13.8602V19.2102H69.25V18.9602C70.4 18.9602 70.83 17.3202 70.83 15.4702V3.76023C70.83 2.07023 70.45 0.210234 69.25 0.210234V-0.00976562H84.83V5.59023H84.58C84.58 0.270235 77.13 0.240234 77.13 0.240234H76.15V9.38023H78.36C78.36 9.38023 81.28 9.46023 81.58 6.16023H81.83V12.8402H81.58C81.28 9.57023 78.39 9.62023 78.36 9.62023H76.15V18.9502H77.13C77.13 18.9502 84.93 19.2502 84.93 13.8502H85.18V13.8602Z" fill="#3B3B42"/>
</svg>
