<svg width="622" height="668" viewBox="0 0 622 668" fill="none" xmlns="http://www.w3.org/2000/svg">
<path d="M292.971 589.373H293.449L296.796 589.612C294.047 589.492 291.179 589.253 288.191 588.895C288.071 588.895 287.832 588.895 287.713 588.895C289.386 589.014 291.179 589.253 292.852 589.373H292.971Z" fill="#3A3A47"/>
<path d="M254.728 583.636L257.716 584.234C257.716 584.234 257.357 584.234 257.238 584.234C256.401 584.114 255.565 583.875 254.728 583.756V583.636Z" fill="#3A3A47"/>
<path d="M277.913 587.7C281.14 588.178 284.486 588.536 287.713 588.775C287.832 588.775 287.952 588.775 288.191 588.775C284.845 588.417 281.379 588.058 278.033 587.58L277.913 587.7Z" fill="#3A3A47"/>
<path d="M257.596 584.234C257.596 584.234 257.955 584.234 258.194 584.353H258.672C261.54 585.07 264.528 585.548 267.516 586.146C267.516 586.146 267.277 586.146 267.157 586.146C263.811 585.548 260.584 584.951 257.477 584.353L257.596 584.234Z" fill="#3A3A47"/>
<path d="M267.516 586.146H267.755C270.982 586.744 274.208 587.222 277.555 587.58C274.089 587.102 270.743 586.624 267.396 586.027L267.516 586.146Z" fill="#3A3A47"/>
<path d="M333.246 584.592C331.334 584.592 329.541 584.473 327.629 584.353C327.39 584.353 327.151 584.592 326.792 584.712C328.705 584.712 330.497 584.951 332.29 584.951C337.309 585.19 342.09 585.309 346.392 585.309C346.751 585.309 347.109 585.07 347.468 584.951C343.046 584.951 338.265 584.951 333.127 584.592H333.246Z" fill="#3A3A47"/>
<path d="M304.922 582.68C304.922 582.68 304.564 582.919 304.444 583.039C311.854 583.756 319.144 584.353 326.195 584.712C326.434 584.712 326.673 584.473 327.032 584.353C319.861 583.995 312.452 583.397 304.922 582.68Z" fill="#3A3A47"/>
<path d="M257.716 576.346C250.306 575.151 243.135 573.717 236.204 572.283C236.323 572.402 236.562 572.641 236.801 572.761C243.613 574.195 250.665 575.509 257.955 576.705C257.955 576.585 257.835 576.346 257.716 576.227V576.346Z" fill="#3A3A47"/>
<path d="M304.205 582.561C296.676 581.844 289.027 581.007 281.498 579.932C281.498 580.051 281.498 580.171 281.498 580.29C289.027 581.246 296.557 582.202 303.847 582.919C303.966 582.919 304.205 582.68 304.325 582.561H304.205Z" fill="#3A3A47"/>
<path d="M180.99 555.551L182.663 556.508C183.619 556.986 184.695 557.583 185.89 558.061C185.412 557.822 185.054 557.583 184.576 557.344C183.261 556.747 182.066 556.149 180.99 555.551Z" fill="#3A3A47"/>
<path d="M188.639 559.017C187.324 558.539 186.129 557.942 184.934 557.464C185.412 557.703 185.771 557.942 186.249 558.181C187.324 558.659 188.519 559.137 189.834 559.734C192.702 560.929 195.809 562.005 199.156 563.081C198.797 562.842 198.439 562.603 198.08 562.483C194.614 561.288 191.388 560.212 188.639 559.017Z" fill="#3A3A47"/>
<path d="M280.901 579.812C273.252 578.856 265.723 577.661 258.313 576.346C258.313 576.466 258.433 576.585 258.552 576.824C265.842 578.019 273.252 579.214 280.781 580.17C280.781 580.051 280.781 579.931 280.781 579.812H280.901Z" fill="#3A3A47"/>
<path d="M373.88 583.158L375.672 582.8C372.685 583.517 368.86 583.995 364.319 584.353C363.841 584.353 363.482 584.592 363.004 584.712C367.307 584.353 371.012 583.875 373.88 583.158Z" fill="#3A3A47"/>
<path d="M198.558 562.603C198.558 562.603 199.275 563.081 199.634 563.2C204.653 564.873 210.27 566.427 216.246 567.98C216.007 567.741 215.648 567.622 215.409 567.383C209.314 565.829 203.578 564.156 198.558 562.483V562.603Z" fill="#3A3A47"/>
<path d="M348.065 584.951C348.065 584.951 347.348 585.19 346.99 585.309C352.846 585.309 358.104 585.07 362.526 584.712C363.004 584.712 363.363 584.473 363.841 584.353C359.299 584.712 353.921 584.951 347.946 584.951H348.065Z" fill="#3A3A47"/>
<path d="M215.887 567.622C215.887 567.622 216.485 567.98 216.724 568.219C222.819 569.773 229.272 571.207 236.084 572.641C235.965 572.522 235.726 572.283 235.606 572.163C228.675 570.729 222.102 569.176 216.007 567.622H215.887Z" fill="#3A3A47"/>
<path d="M410.211 565.71C410.211 565.71 409.374 566.188 409.016 566.427C415.708 565.829 421.325 565.112 425.867 564.037C426.345 563.798 426.823 563.559 427.181 563.32C422.64 564.395 416.903 565.112 410.211 565.71Z" fill="#3A3A47"/>
<path d="M130.198 518.503C130.198 518.503 131.035 519.22 131.394 519.579C134.023 521.73 137.967 524.001 143.225 526.391C142.867 526.032 142.508 525.674 142.149 525.315C136.891 522.925 132.828 520.535 130.198 518.384V518.503Z" fill="#3A3A47"/>
<path d="M251.143 553.759C240.148 551.847 229.392 549.815 218.994 547.783C219.114 548.022 219.233 548.381 219.353 548.62C229.631 550.771 240.267 552.803 251.143 554.595C251.143 554.356 251.143 554.117 251.023 553.759H251.143Z" fill="#3A3A47"/>
<path d="M409.613 565.829C402.801 566.307 394.913 566.666 385.95 566.666C385.592 566.905 385.233 567.144 384.994 567.383C393.838 567.383 401.606 567.144 408.418 566.546C408.777 566.307 409.255 566.068 409.613 565.829Z" fill="#3A3A47"/>
<path d="M129.003 517.547L130.318 518.742C130.318 518.742 130.916 519.221 131.155 519.46C130.796 519.101 130.318 518.742 129.959 518.384C129.601 518.145 129.242 517.786 129.003 517.547Z" fill="#3A3A47"/>
<path d="M218.158 547.544C207.88 545.393 198.08 543.122 188.878 540.732C189.117 540.971 189.356 541.33 189.595 541.569C198.678 543.839 208.478 546.11 218.636 548.261C218.516 548.022 218.397 547.664 218.158 547.425V547.544Z" fill="#3A3A47"/>
<path d="M434.352 561.288L435.906 560.451C433.754 561.527 431.006 562.483 427.54 563.32C427.062 563.559 426.584 563.798 426.225 564.037C429.572 563.2 432.32 562.364 434.352 561.288Z" fill="#3A3A47"/>
<path d="M163.183 534.159C163.183 534.159 162.586 533.562 162.347 533.203C157.208 531.53 152.428 529.737 148.125 528.064C146.213 527.228 144.301 526.511 142.628 525.674C142.986 526.032 143.345 526.391 143.703 526.63C145.376 527.347 147.169 528.184 149.081 528.901C153.264 530.574 158.044 532.366 163.183 534.04V534.159Z" fill="#3A3A47"/>
<path d="M285.681 559.017C274.328 557.464 263.094 555.79 251.979 553.878C251.979 554.117 251.979 554.356 252.099 554.715C263.094 556.508 274.208 558.3 285.442 559.734C285.442 559.495 285.442 559.256 285.562 559.017H285.681Z" fill="#3A3A47"/>
<path d="M188.041 540.613C178.958 538.222 170.473 535.832 162.944 533.323C163.183 533.681 163.542 533.92 163.781 534.279C171.31 536.788 179.676 539.179 188.758 541.449C188.519 541.091 188.28 540.852 188.041 540.493V540.613Z" fill="#3A3A47"/>
<path d="M384.158 567.263C384.158 567.263 384.875 566.785 385.114 566.546C378.541 566.546 371.37 566.427 363.721 566.068C360.973 566.068 358.104 565.829 355.356 565.71C355.117 565.949 354.878 566.188 354.639 566.427C357.507 566.546 360.256 566.666 363.004 566.785C370.653 567.144 377.704 567.263 384.158 567.263Z" fill="#3A3A47"/>
<path d="M320.578 563.081C309.344 562.005 297.991 560.69 286.637 559.137C286.637 559.376 286.637 559.615 286.518 559.854C297.752 561.288 308.986 562.603 320.219 563.678C320.339 563.439 320.458 563.2 320.697 562.961L320.578 563.081Z" fill="#3A3A47"/>
<path d="M354.519 565.71C343.882 565.112 332.768 564.276 321.654 563.2C321.534 563.439 321.295 563.678 321.176 563.917C332.29 564.993 343.285 565.829 353.802 566.427C354.041 566.188 354.28 565.949 354.519 565.71Z" fill="#3A3A47"/>
<path d="M88.9673 470.699L89.9234 472.133C90.7599 473.328 92.0746 474.643 93.6282 476.077C93.3892 475.599 93.0306 475.241 92.7916 474.763C91.1185 473.448 89.8039 472.133 88.9673 470.819V470.699Z" fill="#3A3A47"/>
<path d="M485.98 527.467L487.295 526.391C487.056 526.63 486.697 526.869 486.339 527.108C485.861 527.467 485.502 527.825 485.144 528.184C485.502 527.945 485.741 527.706 485.98 527.467Z" fill="#3A3A47"/>
<path d="M108.328 483.726C101.516 480.619 96.4966 477.631 93.0308 474.882C93.3893 475.36 93.6283 475.719 93.9868 476.197C97.4526 478.946 102.472 481.933 109.284 485.041C109.045 484.563 108.687 484.204 108.448 483.726H108.328Z" fill="#3A3A47"/>
<path d="M379.855 535.235C366.231 534.518 352.129 533.442 337.787 532.008C337.668 532.367 337.548 532.725 337.309 532.964C351.531 534.279 365.633 535.354 379.138 536.191C379.377 535.832 379.616 535.474 379.855 535.235Z" fill="#3A3A47"/>
<path d="M134.74 494.721C134.74 494.721 134.262 493.884 134.023 493.526C127.45 491.374 121.355 489.104 115.857 486.953C113.347 485.997 111.077 484.921 108.926 483.965C109.165 484.443 109.404 484.801 109.762 485.279C111.913 486.236 114.184 487.311 116.694 488.267C122.191 490.418 128.167 492.689 134.74 494.84V494.721Z" fill="#3A3A47"/>
<path d="M473.193 532.008C473.193 532.008 472.356 532.725 471.998 532.964C477.734 531.649 482.036 529.976 484.785 528.184C485.263 527.825 485.622 527.467 485.98 527.108C483.232 529.02 478.929 530.574 473.073 531.888L473.193 532.008Z" fill="#3A3A47"/>
<path d="M205.49 511.93C192.344 509.181 179.795 506.313 168.083 503.325C168.203 503.684 168.442 504.042 168.561 504.52C180.154 507.508 192.702 510.376 205.848 513.125C205.848 512.767 205.609 512.408 205.609 512.05L205.49 511.93Z" fill="#3A3A47"/>
<path d="M336.473 531.888C322.132 530.454 307.552 528.781 293.091 526.869C293.091 527.228 292.971 527.586 292.852 527.945C307.313 529.857 321.773 531.53 335.995 532.964C336.114 532.606 336.234 532.247 336.473 532.008V531.888Z" fill="#3A3A47"/>
<path d="M418.218 537.386C418.218 537.386 418.815 536.788 419.054 536.43C410.689 536.43 401.486 536.191 391.687 535.832C388.101 535.713 384.516 535.474 380.931 535.354C380.692 535.713 380.453 536.071 380.214 536.31C383.799 536.549 387.384 536.669 390.97 536.788C400.769 537.147 409.733 537.386 418.098 537.386H418.218Z" fill="#3A3A47"/>
<path d="M167.008 503.086C155.296 500.099 144.54 496.991 134.859 493.765C135.098 494.123 135.337 494.601 135.576 494.96C145.257 498.067 156.013 501.174 167.605 504.162C167.486 503.803 167.247 503.325 167.127 502.967L167.008 503.086Z" fill="#3A3A47"/>
<path d="M450.247 535.235C441.522 535.952 431.484 536.31 420.011 536.31C419.772 536.669 419.413 537.027 419.174 537.266C430.528 537.266 440.566 536.908 449.171 536.191C449.53 535.832 449.888 535.474 450.247 535.235Z" fill="#3A3A47"/>
<path d="M291.895 526.63C277.435 524.718 262.974 522.567 248.872 520.177C248.872 520.535 248.872 520.894 248.872 521.252C262.855 523.642 277.315 525.794 291.656 527.706C291.656 527.347 291.776 526.989 291.895 526.63Z" fill="#3A3A47"/>
<path d="M247.677 519.937C233.575 517.547 219.831 514.918 206.565 512.169C206.565 512.528 206.804 512.886 206.804 513.245C219.951 515.994 233.575 518.503 247.677 520.894C247.677 520.535 247.677 520.176 247.677 519.818V519.937Z" fill="#3A3A47"/>
<path d="M472.715 532.127C466.859 533.442 459.569 534.518 450.964 535.235C450.605 535.593 450.247 535.952 449.888 536.191C458.493 535.474 465.663 534.518 471.519 533.203C471.878 532.845 472.237 532.486 472.715 532.247V532.127Z" fill="#3A3A47"/>
<path d="M197.961 466.875C182.544 463.648 167.844 460.302 154.22 456.717C154.22 457.195 154.459 457.673 154.459 458.151C168.083 461.616 182.783 465.082 198.08 468.19C198.08 467.711 198.08 467.233 197.961 466.875Z" fill="#3A3A47"/>
<path d="M484.427 494.123C474.268 494.96 462.437 495.318 449.052 495.318C448.813 495.796 448.573 496.155 448.334 496.633C461.6 496.633 473.432 496.155 483.59 495.438C483.829 494.96 484.188 494.601 484.427 494.123Z" fill="#3A3A47"/>
<path d="M401.964 494.004C385.95 493.167 369.458 491.853 352.726 490.299C352.607 490.777 352.487 491.136 352.368 491.614C369.099 493.167 385.592 494.482 401.486 495.318C401.725 494.84 401.845 494.482 402.084 494.004H401.964Z" fill="#3A3A47"/>
<path d="M447.139 496.633C447.139 496.633 447.617 495.796 447.856 495.318C438.057 495.318 427.301 495.079 415.828 494.601C411.645 494.482 407.462 494.243 403.279 494.004C403.04 494.482 402.921 494.84 402.682 495.318C406.864 495.557 411.047 495.796 415.23 495.916C426.703 496.394 437.22 496.633 447.139 496.633Z" fill="#3A3A47"/>
<path d="M526.255 484.682C523.028 486.833 517.889 488.745 511.197 490.299C510.838 490.777 510.599 491.135 510.241 491.613C516.933 490.06 521.953 488.148 525.179 485.997C525.538 485.518 525.777 485.16 526.136 484.682H526.255Z" fill="#3A3A47"/>
<path d="M510.719 490.418C503.907 491.972 495.421 493.167 485.263 494.004C485.024 494.482 484.666 494.84 484.427 495.318C494.465 494.482 502.951 493.287 509.763 491.733C510.121 491.255 510.36 490.896 510.719 490.418Z" fill="#3A3A47"/>
<path d="M114.782 446.678C114.782 446.678 114.543 445.722 114.304 445.244C106.536 442.734 99.4845 440.105 93.031 437.595C90.0432 436.4 87.414 435.205 84.9043 434.129C85.0238 434.607 85.2628 435.085 85.3823 435.563C87.8921 436.758 90.6408 437.834 93.509 439.029C99.8431 441.658 106.894 444.168 114.662 446.678H114.782Z" fill="#3A3A47"/>
<path d="M84.3066 433.77C76.419 430.066 70.4435 426.719 66.3801 423.373C66.6191 423.851 66.7387 424.329 66.9777 424.927C71.041 428.153 76.897 431.619 84.9042 435.205C84.7847 434.727 84.5457 434.248 84.4262 433.77H84.3066Z" fill="#3A3A47"/>
<path d="M528.406 483.248L529.482 481.933C528.765 482.889 527.809 483.726 526.614 484.562C526.255 485.04 526.016 485.399 525.658 485.877C526.853 485.04 527.809 484.204 528.406 483.367V483.248Z" fill="#3A3A47"/>
<path d="M153.025 456.358C139.401 452.892 126.733 449.187 115.379 445.482C115.499 445.96 115.618 446.438 115.857 446.917C127.211 450.621 139.759 454.207 153.383 457.792C153.383 457.314 153.144 456.836 153.144 456.358H153.025Z" fill="#3A3A47"/>
<path d="M60.4045 416.322L61.0021 417.876C61.8387 420.027 63.6313 422.298 66.6191 424.688C66.38 424.21 66.2605 423.732 66.0215 423.134C63.0338 420.744 61.2411 418.473 60.4045 416.322Z" fill="#3A3A47"/>
<path d="M299.066 483.965C282.096 481.694 265.245 479.185 248.752 476.316C248.752 476.794 248.752 477.153 248.752 477.631C265.245 480.38 282.096 483.009 298.947 485.28C298.947 484.802 299.066 484.443 299.186 483.965H299.066Z" fill="#3A3A47"/>
<path d="M247.318 476.077C230.826 473.328 214.692 470.221 199.275 466.994C199.275 467.472 199.275 467.95 199.395 468.309C214.812 471.536 230.826 474.523 247.199 477.272C247.199 476.794 247.199 476.316 247.199 475.958L247.318 476.077Z" fill="#3A3A47"/>
<path d="M351.292 490.06C334.561 488.387 317.471 486.475 300.5 484.204C300.5 484.682 300.381 485.04 300.261 485.518C317.112 487.789 334.083 489.701 350.814 491.374C350.934 490.896 351.053 490.538 351.173 490.06H351.292Z" fill="#3A3A47"/>
<path d="M71.3996 377.242C62.6754 373.298 56.1023 369.474 51.6804 365.889C51.6804 366.486 51.7999 366.964 51.9194 367.562C56.3413 371.147 62.7949 374.852 71.5191 378.915C71.5191 378.318 71.3996 377.84 71.2801 377.242H71.3996Z" fill="#3A3A47"/>
<path d="M250.306 423.851C232.26 420.744 214.573 417.398 197.602 413.932C197.602 414.41 197.602 415.008 197.602 415.486C214.453 418.951 232.141 422.298 250.187 425.405C250.187 424.927 250.187 424.329 250.306 423.851Z" fill="#3A3A47"/>
<path d="M104.623 391.464C104.623 391.464 104.623 390.388 104.504 389.91C96.0186 387.162 88.2504 384.293 81.1993 381.425C77.9726 380.11 74.9848 378.796 72.2361 377.601C72.2361 378.198 72.3556 378.676 72.4751 379.274C75.2238 380.588 78.2116 381.784 81.4384 383.098C88.37 385.966 96.2576 388.715 104.623 391.583V391.464Z" fill="#3A3A47"/>
<path d="M539.282 439.507C531.752 441.18 522.431 442.495 511.436 443.451C511.197 443.929 511.077 444.407 510.838 445.004C521.953 444.048 531.274 442.734 538.684 441.061C538.923 440.583 539.162 440.105 539.282 439.507Z" fill="#3A3A47"/>
<path d="M419.532 444.885C419.532 444.885 419.771 443.929 420.01 443.331C402.442 442.375 384.396 440.941 365.992 439.149C365.992 439.627 365.753 440.105 365.633 440.702C384.038 442.495 402.084 443.809 419.532 444.766V444.885Z" fill="#3A3A47"/>
<path d="M44.7488 356.328L44.9878 358.001C45.4658 360.869 47.617 363.977 51.6804 367.203C51.6804 366.606 51.5609 366.128 51.4413 365.53C47.378 362.184 45.2268 359.077 44.7488 356.208V356.328Z" fill="#3A3A47"/>
<path d="M556.371 433.173C552.786 435.563 547.289 437.715 539.879 439.388C539.64 439.866 539.401 440.344 539.281 440.941C546.691 439.268 552.189 437.117 555.774 434.727C556.013 434.249 556.252 433.771 556.491 433.173H556.371Z" fill="#3A3A47"/>
<path d="M307.073 432.456C288.43 429.946 269.906 427.197 251.86 424.09C251.86 424.568 251.86 425.166 251.74 425.644C269.786 428.751 288.31 431.5 306.954 434.009C306.954 433.531 307.073 433.053 307.193 432.456H307.073Z" fill="#3A3A47"/>
<path d="M510.36 443.57C499.126 444.407 486.219 444.885 471.639 444.885C471.519 445.363 471.28 445.841 471.161 446.439C485.741 446.439 498.648 445.96 509.882 445.124C510.121 444.646 510.241 444.048 510.48 443.57H510.36Z" fill="#3A3A47"/>
<path d="M560.076 430.066L560.793 428.512C560.076 430.066 558.762 431.619 556.73 433.053C556.491 433.532 556.252 434.129 556.013 434.607C558.045 433.173 559.359 431.739 560.076 430.185V430.066Z" fill="#3A3A47"/>
<path d="M196.168 413.573C179.317 410.108 163.183 406.283 148.125 402.459C148.125 402.937 148.125 403.534 148.125 404.013C163.183 407.837 179.198 411.542 196.049 415.127C196.049 414.649 196.049 414.051 196.049 413.573H196.168Z" fill="#3A3A47"/>
<path d="M146.81 402.22C131.872 398.396 118.008 394.332 105.579 390.269C105.579 390.747 105.579 391.345 105.699 391.823C118.128 395.886 131.991 399.83 146.93 403.774C146.93 403.296 146.93 402.698 146.93 402.22H146.81Z" fill="#3A3A47"/>
<path d="M469.846 446.439C469.846 446.439 470.205 445.482 470.324 444.885C459.568 444.885 447.856 444.646 435.188 444.168C430.647 443.929 425.986 443.809 421.325 443.57C421.206 444.048 421.086 444.526 420.847 445.124C425.508 445.363 430.049 445.602 434.591 445.721C447.139 446.199 458.851 446.439 469.607 446.439H469.846Z" fill="#3A3A47"/>
<path d="M364.319 439.149C345.914 437.356 327.271 435.205 308.627 432.695C308.627 433.173 308.508 433.771 308.388 434.249C326.912 436.758 345.675 438.91 363.96 440.702C363.96 440.224 364.199 439.746 364.319 439.149Z" fill="#3A3A47"/>
<path d="M484.905 387.998C484.905 387.998 485.144 386.803 485.144 386.325C473.91 386.325 461.839 386.086 448.693 385.488C443.913 385.249 439.132 385.01 434.352 384.771C434.352 385.369 434.113 385.966 434.113 386.444C438.893 386.683 443.674 386.922 448.454 387.161C461.481 387.639 473.671 387.998 484.905 387.998Z" fill="#3A3A47"/>
<path d="M432.918 384.771C414.752 383.815 395.869 382.262 376.748 380.469C376.748 381.067 376.628 381.664 376.509 382.142C395.63 383.935 414.393 385.488 432.679 386.444C432.679 385.847 432.918 385.249 432.918 384.771Z" fill="#3A3A47"/>
<path d="M200.351 353.818C182.783 350.114 166.051 346.289 150.515 342.345C150.515 342.943 150.396 343.541 150.276 344.019C165.932 347.962 182.663 351.906 200.112 355.492C200.112 354.894 200.231 354.296 200.351 353.818Z" fill="#3A3A47"/>
<path d="M526.853 384.891C515.26 385.847 501.755 386.325 486.578 386.325C486.578 386.923 486.339 387.52 486.339 387.998C501.516 387.998 515.021 387.52 526.614 386.564C526.614 385.966 526.853 385.369 526.972 384.891H526.853Z" fill="#3A3A47"/>
<path d="M315.678 373.418C296.318 370.789 277.077 367.921 258.313 364.694C258.313 365.291 258.194 365.889 258.074 366.367C276.838 369.594 296.079 372.462 315.439 375.091C315.439 374.494 315.559 373.896 315.678 373.418Z" fill="#3A3A47"/>
<path d="M256.64 364.455C237.877 361.228 219.473 357.762 201.905 354.177C201.905 354.775 201.785 355.372 201.666 355.85C219.234 359.555 237.638 362.901 256.401 366.128C256.401 365.53 256.521 364.933 256.64 364.455Z" fill="#3A3A47"/>
<path d="M574.537 374.135C570.832 376.645 565.096 378.796 557.447 380.589C557.447 381.186 557.208 381.784 557.089 382.262C564.737 380.469 570.474 378.318 574.179 375.808C574.179 375.211 574.418 374.613 574.537 374.135Z" fill="#3A3A47"/>
<path d="M70.9215 316.053C61.8387 311.87 55.1461 307.926 50.4852 304.222C50.4852 304.819 50.4852 305.417 50.3657 306.014C54.9071 309.719 61.7192 313.663 70.802 317.846C70.802 317.248 70.802 316.651 70.9215 316.053Z" fill="#3A3A47"/>
<path d="M375.075 380.23C355.953 378.318 336.593 376.167 317.232 373.537C317.232 374.135 317.112 374.733 316.993 375.211C336.354 377.84 355.714 379.991 374.836 381.903C374.836 381.306 374.955 380.708 375.075 380.23Z" fill="#3A3A47"/>
<path d="M43.1952 294.063C43.1952 294.063 43.1952 295.258 43.0757 295.856C43.4342 298.963 45.7049 302.309 50.0073 305.775C50.0073 305.178 50.0073 304.58 50.1268 303.983C45.7049 300.397 43.4342 297.051 43.1952 294.063Z" fill="#3A3A47"/>
<path d="M104.982 330.992C104.982 330.992 104.982 329.797 105.101 329.199C96.2576 326.331 88.2505 323.343 80.9603 320.475C77.6141 319.16 74.5068 317.846 71.6386 316.531C71.6386 317.129 71.6386 317.726 71.519 318.324C74.3873 319.639 77.4945 320.953 80.8408 322.268C88.131 325.255 96.2576 328.124 104.982 330.992Z" fill="#3A3A47"/>
<path d="M149.201 341.987C133.664 337.924 119.204 333.86 106.297 329.558C106.297 330.155 106.297 330.753 106.177 331.351C119.084 335.533 133.545 339.716 149.081 343.78C149.081 343.182 149.081 342.584 149.32 342.106L149.201 341.987Z" fill="#3A3A47"/>
<path d="M579.318 369.474L579.676 367.681C579.198 369.952 577.644 371.984 575.015 373.896C575.015 374.493 574.776 375.091 574.657 375.569C577.405 373.657 578.959 371.625 579.318 369.354V369.474Z" fill="#3A3A47"/>
<path d="M556.73 380.708C548.962 382.501 539.282 383.815 527.809 384.771C527.809 385.369 527.57 385.966 527.45 386.444C538.923 385.488 548.604 384.174 556.372 382.381C556.372 381.784 556.611 381.186 556.73 380.708Z" fill="#3A3A47"/>
<path d="M324.164 310.436C305.161 307.926 286.279 305.058 267.755 301.951C267.755 302.548 267.516 303.146 267.396 303.624C285.92 306.731 304.922 309.599 323.925 312.229C323.925 311.631 324.044 311.034 324.164 310.436Z" fill="#3A3A47"/>
<path d="M382.723 317.248C363.96 315.456 344.839 313.185 325.836 310.675C325.836 311.273 325.717 311.87 325.597 312.468C344.6 314.978 363.721 317.248 382.604 319.041C382.604 318.443 382.604 317.846 382.723 317.248Z" fill="#3A3A47"/>
<path d="M561.391 317.607C553.742 319.399 544.182 320.714 532.948 321.67C532.948 322.268 532.948 322.865 532.948 323.463C544.301 322.507 553.862 321.192 561.511 319.399C561.511 318.802 561.511 318.204 561.511 317.607H561.391Z" fill="#3A3A47"/>
<path d="M116.694 268.608C116.694 268.608 117.053 267.532 117.172 266.935C108.448 264.066 100.56 261.198 93.3896 258.33C90.1628 257.015 87.0555 255.701 84.1873 254.386C84.0678 254.984 83.8287 255.462 83.7092 256.059C86.5775 257.374 89.5652 258.688 92.9115 260.003C100.082 262.871 108.089 265.859 116.694 268.608Z" fill="#3A3A47"/>
<path d="M83.47 254.027C74.5068 249.964 67.9337 246.02 63.3923 242.435C63.2728 243.032 63.0338 243.51 62.9143 244.108C67.4557 247.693 74.1483 251.637 82.992 255.7C83.1115 255.103 83.3505 254.625 83.47 254.027Z" fill="#3A3A47"/>
<path d="M439.491 321.55C421.564 320.594 403.04 319.16 384.277 317.368C384.277 317.965 384.277 318.563 384.157 319.16C402.921 320.953 421.564 322.387 439.371 323.343C439.371 322.746 439.371 322.148 439.371 321.55H439.491Z" fill="#3A3A47"/>
<path d="M266.082 301.592C247.558 298.485 229.511 295.019 212.183 291.434C212.183 292.032 211.943 292.51 211.824 293.107C229.153 296.693 247.199 300.158 265.723 303.266C265.723 302.668 265.962 302.07 265.962 301.592H266.082Z" fill="#3A3A47"/>
<path d="M62.4362 243.749C62.4362 243.749 62.7948 242.674 62.9143 242.076C58.6119 238.61 56.3412 235.264 56.1022 232.276C55.8632 232.874 55.7437 233.352 55.5046 233.95C55.8632 236.937 58.0144 240.284 62.3167 243.749H62.4362Z" fill="#3A3A47"/>
<path d="M210.748 291.195C193.539 287.61 177.046 283.785 161.63 279.842C161.51 280.439 161.391 280.917 161.152 281.515C176.568 285.459 193.061 289.283 210.27 292.868C210.39 292.271 210.509 291.673 210.629 291.195H210.748Z" fill="#3A3A47"/>
<path d="M490.999 324.897C490.999 324.897 490.999 323.702 490.999 323.104C480.004 323.104 468.053 322.865 455.146 322.268C450.485 322.029 445.825 321.79 441.044 321.551C441.044 322.148 441.044 322.746 441.044 323.343C445.825 323.582 450.485 323.821 455.146 324.06C468.053 324.538 480.004 324.897 490.999 324.897Z" fill="#3A3A47"/>
<path d="M583.979 305.058V303.266C583.979 306.134 582.425 308.644 579.198 310.914C579.198 311.512 579.198 312.109 579.198 312.707C582.425 310.436 584.098 307.807 583.979 305.058Z" fill="#3A3A47"/>
<path d="M531.872 321.67C520.399 322.626 507.253 323.104 492.314 323.104C492.314 323.702 492.314 324.299 492.314 324.897C507.253 324.897 520.519 324.419 531.992 323.463C531.992 322.865 531.992 322.268 531.992 321.67H531.872Z" fill="#3A3A47"/>
<path d="M578.839 311.153C575.135 313.663 569.518 315.695 561.989 317.487C561.989 318.085 561.989 318.682 561.989 319.28C569.518 317.487 575.254 315.336 578.839 312.946C578.839 312.348 578.839 311.751 578.839 311.153Z" fill="#3A3A47"/>
<path d="M160.434 279.483C145.137 275.539 131.035 271.476 118.247 267.293C118.128 267.891 117.889 268.369 117.769 268.966C130.437 273.149 144.659 277.212 159.956 281.156C160.076 280.559 160.195 280.081 160.434 279.483Z" fill="#3A3A47"/>
<path d="M107.492 197.38C99.2453 193.555 93.0308 189.97 88.7284 186.624C88.4894 187.102 88.1309 187.58 87.8918 188.058C92.0747 191.404 98.2892 195.109 106.655 198.933C106.894 198.455 107.133 197.977 107.492 197.499V197.38Z" fill="#3A3A47"/>
<path d="M439.371 260.361C422.64 259.405 405.43 258.091 387.862 256.418C387.862 257.015 387.862 257.493 387.862 258.091C405.43 259.764 422.759 261.078 439.491 262.034C439.491 261.437 439.491 260.959 439.491 260.361H439.371Z" fill="#3A3A47"/>
<path d="M331.812 249.845C314.125 247.454 296.437 244.825 279.228 241.837C279.228 242.316 278.989 242.913 278.869 243.511C296.198 246.379 313.886 249.128 331.573 251.518C331.573 250.92 331.693 250.442 331.812 249.845Z" fill="#3A3A47"/>
<path d="M226.165 231.918C210.031 228.572 194.734 224.986 180.393 221.401C180.154 221.879 180.034 222.477 179.795 222.955C194.136 226.659 209.553 230.125 225.687 233.591C225.807 233.113 226.046 232.515 226.165 232.037V231.918Z" fill="#3A3A47"/>
<path d="M87.5335 187.699C87.5335 187.699 88.1311 186.743 88.3701 186.265C84.4262 183.038 82.2751 179.931 82.036 177.182C81.797 177.66 81.4385 178.138 81.1995 178.616C81.4385 181.485 83.5897 184.472 87.653 187.819L87.5335 187.699Z" fill="#3A3A47"/>
<path d="M487.534 263.469C487.534 263.469 487.414 262.393 487.295 261.795C477.017 261.795 465.902 261.556 453.951 261.078C449.649 260.959 445.227 260.72 440.805 260.481C440.805 261.078 440.805 261.556 440.805 262.154C445.227 262.393 449.649 262.632 453.951 262.752C465.902 263.23 477.136 263.469 487.414 263.469H487.534Z" fill="#3A3A47"/>
<path d="M386.428 256.178C368.86 254.505 351.053 252.474 333.366 250.083C333.366 250.561 333.246 251.159 333.127 251.757C350.934 254.147 368.741 256.178 386.309 257.852C386.309 257.254 386.309 256.776 386.309 256.178H386.428Z" fill="#3A3A47"/>
<path d="M569.518 250.442C569.518 250.442 569.876 251.518 569.996 252.115C573.223 249.845 574.776 247.335 574.418 244.467C574.298 243.869 574.059 243.391 573.94 242.793C574.298 245.542 572.745 248.171 569.518 250.442Z" fill="#3A3A47"/>
<path d="M525.418 260.481C514.782 261.317 502.472 261.795 488.49 261.795C488.49 262.393 488.609 262.871 488.729 263.469C502.711 263.469 515.021 262.991 525.777 262.154C525.777 261.556 525.538 261.078 525.418 260.481Z" fill="#3A3A47"/>
<path d="M138.206 210.884C138.206 210.884 138.684 209.809 138.923 209.331C130.796 206.701 123.386 203.953 116.694 201.323C113.706 200.128 110.838 198.814 108.209 197.619C107.97 198.097 107.611 198.575 107.372 199.053C110.001 200.248 112.87 201.443 115.977 202.757C122.669 205.506 130.079 208.135 138.206 210.884Z" fill="#3A3A47"/>
<path d="M277.794 241.718C260.584 238.73 243.733 235.623 227.599 232.276C227.48 232.754 227.241 233.352 227.121 233.83C243.255 237.176 260.106 240.403 277.435 243.271C277.435 242.793 277.674 242.196 277.794 241.718Z" fill="#3A3A47"/>
<path d="M552.906 256.656C545.735 258.21 536.891 259.525 526.375 260.361C526.375 260.959 526.614 261.437 526.733 262.034C537.369 261.198 546.213 259.883 553.384 258.33C553.264 257.732 553.145 257.254 553.025 256.656H552.906Z" fill="#3A3A47"/>
<path d="M569.279 250.561C565.813 252.832 560.555 254.864 553.623 256.537C553.743 257.134 553.862 257.612 553.982 258.21C561.033 256.537 566.291 254.625 569.757 252.235L569.279 250.561Z" fill="#3A3A47"/>
<path d="M179.198 221.043C164.976 217.338 151.71 213.633 139.879 209.689C139.64 210.167 139.401 210.765 139.162 211.243C150.993 215.187 164.259 218.891 178.6 222.596C178.839 222.118 179.078 221.521 179.198 221.043Z" fill="#3A3A47"/>
<path d="M204.414 168.578C191.866 165.351 180.273 162.005 169.876 158.658C169.517 159.136 169.278 159.495 168.92 159.973C179.317 163.439 191.029 166.785 203.578 170.012C203.817 169.534 204.056 169.056 204.295 168.697L204.414 168.578Z" fill="#3A3A47"/>
<path d="M532.589 199.77C526.375 201.204 518.487 202.279 509.285 202.996C509.524 203.475 509.643 203.953 509.882 204.55C519.204 203.833 527.092 202.638 533.306 201.204C533.067 200.726 532.828 200.248 532.589 199.77Z" fill="#3A3A47"/>
<path d="M168.083 159.614C168.083 159.614 168.681 158.778 169.039 158.3C161.988 155.91 155.415 153.639 149.559 151.249C146.93 150.173 144.42 149.097 142.03 148.022C141.671 148.5 141.313 148.858 140.954 149.336C143.345 150.412 145.854 151.488 148.483 152.563C154.339 154.953 160.913 157.344 168.083 159.614Z" fill="#3A3A47"/>
<path d="M386.428 199.411C371.012 197.977 355.356 196.065 339.819 194.033C339.819 194.511 339.819 194.989 339.7 195.467C355.356 197.499 371.012 199.411 386.548 200.845C386.548 200.367 386.548 199.889 386.548 199.292L386.428 199.411Z" fill="#3A3A47"/>
<path d="M432.918 202.996C418.218 202.16 403.16 201.084 387.743 199.531C387.743 200.009 387.743 200.487 387.743 201.084C403.16 202.518 418.457 203.714 433.157 204.55C433.157 204.072 433.037 203.594 432.918 202.996Z" fill="#3A3A47"/>
<path d="M546.93 194.392C543.943 196.424 539.282 198.216 533.067 199.531C533.306 200.009 533.545 200.487 533.784 201.085C539.999 199.65 544.66 197.858 547.647 195.826C547.408 195.348 547.169 194.87 546.93 194.392Z" fill="#3A3A47"/>
<path d="M245.645 178.139C231.543 175.151 218.038 172.044 205.49 168.817C205.251 169.295 205.012 169.773 204.773 170.131C217.441 173.358 230.945 176.465 245.167 179.453C245.406 178.975 245.526 178.497 245.765 178.019L245.645 178.139Z" fill="#3A3A47"/>
<path d="M338.505 193.794C322.968 191.763 307.432 189.372 292.254 186.863C292.135 187.341 292.015 187.819 291.896 188.297C307.074 190.807 322.729 193.197 338.266 195.348C338.266 194.87 338.266 194.392 338.385 193.914L338.505 193.794Z" fill="#3A3A47"/>
<path d="M475.463 205.745C475.463 205.745 475.105 204.789 474.985 204.192C465.902 204.192 456.103 203.953 445.586 203.594C441.761 203.475 437.937 203.236 433.993 202.997C433.993 203.475 434.113 203.953 434.232 204.55C438.176 204.789 442 204.909 445.825 205.148C456.342 205.626 466.261 205.745 475.344 205.745H475.463Z" fill="#3A3A47"/>
<path d="M290.94 186.624C275.762 184.114 261.062 181.246 246.84 178.377C246.601 178.855 246.482 179.334 246.243 179.812C260.465 182.799 275.284 185.548 290.462 188.177C290.581 187.699 290.701 187.221 290.82 186.743L290.94 186.624Z" fill="#3A3A47"/>
<path d="M551.83 189.014C551.83 189.014 551.352 188.058 550.994 187.58C551.233 190.089 550.038 192.241 547.169 194.272C547.408 194.75 547.647 195.228 548.006 195.706C550.874 193.675 552.189 191.524 551.83 189.014Z" fill="#3A3A47"/>
<path d="M141.432 147.663C134.142 144.317 128.645 141.09 124.94 138.222C124.582 138.581 124.223 139.059 123.865 139.417C127.569 142.405 133.067 145.632 140.357 148.978C140.715 148.5 141.074 148.142 141.432 147.663Z" fill="#3A3A47"/>
<path d="M123.506 139.178C123.506 139.178 124.223 138.342 124.581 137.983C121.116 135.115 119.203 132.366 118.964 129.976C118.606 130.334 118.247 130.812 117.769 131.171C118.008 133.681 119.92 136.31 123.386 139.178H123.506Z" fill="#3A3A47"/>
<path d="M508.567 203.116C499.246 203.833 488.37 204.311 476.18 204.311C476.3 204.789 476.539 205.267 476.658 205.865C488.968 205.865 499.843 205.506 509.165 204.67C508.926 204.192 508.806 203.714 508.567 203.116Z" fill="#3A3A47"/>
<path d="M482.156 151.727C474.507 152.324 465.783 152.683 455.744 152.683C455.983 153.161 456.222 153.519 456.461 153.997C466.5 153.997 475.344 153.639 482.992 153.041C482.753 152.563 482.395 152.205 482.156 151.727Z" fill="#3A3A47"/>
<path d="M513.467 144.675C510.958 146.349 507.253 147.783 502.233 148.858C502.592 149.336 502.831 149.695 503.19 150.173C508.209 148.978 512.033 147.544 514.543 145.871C514.184 145.393 513.826 145.034 513.467 144.556V144.675Z" fill="#3A3A47"/>
<path d="M204.773 116.232C204.773 116.232 205.49 115.515 205.848 115.157C200.112 113.244 194.734 111.332 189.954 109.42C187.802 108.584 185.771 107.627 183.859 106.791C183.381 107.149 183.022 107.508 182.544 107.747C184.456 108.584 186.488 109.54 188.639 110.376C193.419 112.288 198.797 114.32 204.534 116.232H204.773Z" fill="#3A3A47"/>
<path d="M343.763 144.198C331.095 142.525 318.427 140.612 306.117 138.461C305.998 138.82 305.878 139.298 305.759 139.656C318.188 141.807 330.856 143.72 343.644 145.393C343.644 144.915 343.644 144.556 343.763 144.078V144.198Z" fill="#3A3A47"/>
<path d="M183.38 106.552C177.405 103.803 172.983 101.293 169.995 98.7836C169.517 99.1421 169.039 99.3811 168.681 99.7397C171.668 102.13 176.21 104.759 182.185 107.508C182.663 107.149 183.022 106.791 183.5 106.552H183.38Z" fill="#3A3A47"/>
<path d="M420.608 151.607C408.657 151.01 396.348 150.054 383.799 148.739C383.799 149.217 383.799 149.575 383.919 150.054C396.467 151.249 408.896 152.205 420.967 152.922C420.847 152.444 420.728 152.085 420.608 151.607Z" fill="#3A3A47"/>
<path d="M382.843 148.619C370.294 147.424 357.626 145.99 344.958 144.198C344.958 144.676 344.958 145.034 344.958 145.512C357.746 147.185 370.533 148.739 383.082 149.934C383.082 149.456 383.082 149.098 382.962 148.619H382.843Z" fill="#3A3A47"/>
<path d="M234.65 123.522C224.492 120.893 215.051 118.144 206.565 115.395C206.207 115.754 205.848 116.113 205.49 116.471C213.975 119.22 223.536 121.969 233.814 124.598C234.172 124.239 234.411 123.881 234.77 123.522H234.65Z" fill="#3A3A47"/>
<path d="M455.624 153.997C455.624 153.997 455.146 153.161 455.027 152.683C447.617 152.683 439.73 152.563 431.125 152.205C428.018 152.085 424.91 151.966 421.684 151.727C421.803 152.205 421.923 152.563 422.162 153.041C425.388 153.161 428.496 153.4 431.603 153.519C440.208 153.878 448.215 153.997 455.624 153.997Z" fill="#3A3A47"/>
<path d="M305.161 138.341C292.852 136.31 280.781 134.039 269.308 131.529C269.069 131.888 268.83 132.366 268.711 132.724C280.303 135.115 292.374 137.385 304.803 139.537C304.922 139.178 305.042 138.7 305.161 138.341Z" fill="#3A3A47"/>
<path d="M517.889 140.254C517.889 140.254 517.172 139.417 516.814 139.059C517.053 141.09 515.977 142.883 513.707 144.556C514.065 145.034 514.424 145.393 514.782 145.871C517.172 144.197 518.128 142.405 517.889 140.373V140.254Z" fill="#3A3A47"/>
<path d="M268.232 131.291C256.76 128.9 245.765 126.391 235.487 123.761C235.128 124.12 234.889 124.478 234.65 124.837C244.928 127.466 256.042 129.976 267.515 132.486C267.754 132.127 267.993 131.649 268.232 131.291Z" fill="#3A3A47"/>
<path d="M501.875 148.978C496.736 150.173 490.402 151.01 482.873 151.607C483.112 152.085 483.47 152.444 483.709 152.922C491.358 152.324 497.692 151.368 502.831 150.293C502.472 149.815 502.233 149.456 501.875 148.978Z" fill="#3A3A47"/>
<path d="M168.442 99.6202C168.442 99.6202 169.398 99.0227 169.756 98.6642C166.888 96.274 165.334 94.1228 165.215 92.0911C164.737 92.4496 164.259 92.6887 163.781 93.0472C164.02 95.0789 165.454 97.23 168.322 99.6202H168.442Z" fill="#3A3A47"/>
<path d="M220.548 70.5793C220.548 70.5793 221.504 70.1012 222.102 69.9817C220.07 68.3086 218.995 66.7549 218.756 65.3208C218.277 65.5598 217.68 65.6793 217.202 65.9184C217.321 67.3525 218.397 69.0256 220.548 70.6988V70.5793Z" fill="#3A3A47"/>
<path d="M268.95 87.9082C261.54 85.9961 254.728 84.0839 248.633 82.0522C248.274 82.2912 247.796 82.5303 247.438 82.8888C253.652 84.9205 260.464 86.8326 267.993 88.8643C268.352 88.6253 268.591 88.2667 268.95 88.0277V87.9082Z" fill="#3A3A47"/>
<path d="M461.719 106.193C458.015 107.03 453.473 107.627 447.976 108.105C448.334 108.464 448.693 108.822 449.051 109.181C454.549 108.703 459.21 108.105 462.915 107.269C462.556 106.91 462.078 106.552 461.719 106.193Z" fill="#3A3A47"/>
<path d="M231.901 75.5988C227.599 73.6866 224.372 71.7745 222.221 69.9818C221.743 70.2208 221.265 70.4599 220.667 70.5794C222.819 72.372 226.165 74.2842 230.467 76.1963C230.945 75.9573 231.423 75.7183 231.901 75.4793V75.5988Z" fill="#3A3A47"/>
<path d="M447.498 108.106C442 108.584 435.666 108.823 428.496 108.823C428.735 109.181 429.093 109.54 429.332 109.898C436.622 109.898 443.076 109.659 448.573 109.181C448.215 108.823 447.856 108.464 447.498 108.106Z" fill="#3A3A47"/>
<path d="M319.742 98.5446C310.898 96.991 302.174 95.4374 293.808 93.6447C293.569 94.0032 293.33 94.2423 293.091 94.6008C301.457 96.3934 310.3 98.0666 319.264 99.5007C319.383 99.1422 319.503 98.9032 319.622 98.5446H319.742Z" fill="#3A3A47"/>
<path d="M246.84 82.6498C246.84 82.6498 247.677 82.1718 248.036 81.8133C243.853 80.4987 240.028 79.0645 236.563 77.6304C235.009 77.0329 233.575 76.3158 232.141 75.7182C231.663 75.9573 231.185 76.1963 230.707 76.4353C232.141 77.0329 233.575 77.7499 235.128 78.3475C238.594 79.7816 242.538 81.2157 246.721 82.5303L246.84 82.6498Z" fill="#3A3A47"/>
<path d="M428.735 109.898C428.735 109.898 428.137 109.181 427.898 108.823C422.64 108.823 416.903 108.703 410.689 108.464C408.418 108.464 406.147 108.225 403.877 108.106C404.116 108.464 404.235 108.823 404.474 109.181C406.745 109.301 409.016 109.42 411.286 109.54C417.501 109.779 423.357 109.898 428.735 109.898Z" fill="#3A3A47"/>
<path d="M347.707 102.727C338.624 101.532 329.422 100.098 320.578 98.6641C320.458 99.0226 320.339 99.2616 320.219 99.6202C329.183 101.174 338.385 102.488 347.707 103.803C347.707 103.445 347.707 103.086 347.707 102.727Z" fill="#3A3A47"/>
<path d="M471.519 104.042C471.519 104.042 470.683 103.325 470.205 102.967C468.412 104.162 465.783 105.118 462.078 106.074C462.437 106.432 462.915 106.791 463.273 107.149C466.978 106.313 469.727 105.237 471.519 104.042Z" fill="#3A3A47"/>
<path d="M375.792 105.954C366.709 105.118 357.626 104.042 348.424 102.847C348.424 103.205 348.424 103.564 348.424 103.922C357.626 105.118 366.948 106.193 376.15 107.149C376.15 106.791 376.031 106.432 375.911 106.074L375.792 105.954Z" fill="#3A3A47"/>
<path d="M403.16 108.105C394.555 107.627 385.592 106.91 376.628 106.074C376.628 106.432 376.748 106.791 376.867 107.149C385.95 107.986 395.033 108.703 403.757 109.181C403.518 108.823 403.399 108.464 403.16 108.105Z" fill="#3A3A47"/>
<path d="M473.91 99.9787C473.91 99.9787 472.953 99.3812 472.595 99.0226C472.714 100.457 471.997 101.771 470.324 102.966C470.802 103.325 471.161 103.684 471.639 104.042C473.312 102.847 474.149 101.532 473.91 100.098V99.9787Z" fill="#3A3A47"/>
<path d="M293.091 93.5253C284.845 91.7326 276.838 89.94 269.547 88.0278C269.189 88.2668 268.83 88.6254 268.591 88.8644C276.12 90.7766 284.128 92.5692 292.493 94.3619C292.732 94.0033 292.971 93.7643 293.21 93.4058L293.091 93.5253Z" fill="#3A3A47"/>
<path d="M349.858 71.4158C344.719 70.6987 339.7 69.9817 334.68 69.1451C334.68 69.3841 334.441 69.6232 334.322 69.8622C339.461 70.6987 344.6 71.5353 349.858 72.2524C349.858 72.0134 349.858 71.7743 349.858 71.5353V71.4158Z" fill="#3A3A47"/>
<path d="M334.202 69.1451C329.183 68.3086 324.402 67.3525 319.741 66.3964C319.502 66.6354 319.263 66.7549 319.024 66.9939C323.805 67.95 328.705 68.9061 333.844 69.7427C333.963 69.5037 334.083 69.2646 334.202 69.1451Z" fill="#3A3A47"/>
<path d="M319.383 66.2769C314.722 65.3208 310.3 64.2452 306.117 63.2892C305.759 63.4087 305.4 63.6477 305.042 63.7672C309.225 64.8428 313.766 65.9184 318.546 66.8745C318.785 66.6354 319.024 66.5159 319.263 66.2769H319.383Z" fill="#3A3A47"/>
<path d="M365.633 73.3281C360.614 72.85 355.475 72.2525 350.336 71.5354C350.336 71.7745 350.336 72.0135 350.336 72.2525C355.595 72.9696 360.853 73.5671 365.992 74.0451C365.992 73.8061 365.753 73.5671 365.633 73.3281Z" fill="#3A3A47"/>
<path d="M395.75 75.7183C395.75 75.7183 395.033 75.2402 394.794 74.8817C391.806 74.8817 388.579 74.8817 385.114 74.6427C383.799 74.6427 382.604 74.6427 381.289 74.4037C381.528 74.6427 381.767 74.8817 382.006 75.2402C383.321 75.2402 384.636 75.3597 385.95 75.4792C389.536 75.5988 392.762 75.7183 395.87 75.7183H395.75Z" fill="#3A3A47"/>
<path d="M305.759 63.1697C301.696 62.0941 297.871 61.0185 294.405 59.9429C293.927 60.0624 293.569 60.3014 293.091 60.421C296.557 61.6161 300.5 62.6917 304.683 63.7672C305.042 63.6477 305.4 63.4087 305.759 63.2892V63.1697Z" fill="#3A3A47"/>
<path d="M405.669 74.5231C402.562 74.7622 399.096 74.8817 395.033 74.8817C395.391 75.1207 395.75 75.3597 395.989 75.7182C400.052 75.7182 403.757 75.5987 406.864 75.3597C406.506 75.1207 406.028 74.8817 405.669 74.5231Z" fill="#3A3A47"/>
<path d="M413.676 73.4476C411.645 73.9256 409.016 74.2841 406.028 74.5232C406.506 74.7622 406.864 75.0012 407.223 75.3597C410.33 75.1207 412.959 74.7622 415.111 74.2841C414.633 74.0451 414.155 73.8061 413.676 73.5671V73.4476Z" fill="#3A3A47"/>
<path d="M418.337 71.6549C417.381 72.2525 415.828 72.85 413.796 73.3281C414.274 73.5671 414.752 73.8061 415.23 74.0451C417.262 73.5671 418.815 72.9696 419.891 72.2525C419.413 72.0135 418.815 71.7745 418.337 71.5354V71.6549Z" fill="#3A3A47"/>
<path d="M380.931 74.5232C376.15 74.2841 371.131 73.9256 366.112 73.4476C366.112 73.6866 366.351 73.9256 366.47 74.1646C371.609 74.6427 376.748 75.0012 381.648 75.3597C381.409 75.1207 381.17 74.8817 380.931 74.5232Z" fill="#3A3A47"/>
<path d="M292.852 60.182C292.852 60.182 293.688 59.943 294.166 59.7039C291.776 58.9869 289.744 58.1503 287.713 57.4332C286.876 57.0747 286.04 56.7162 285.203 56.3577C284.725 56.3577 284.247 56.5967 283.649 56.7162C284.486 57.0747 285.323 57.4332 286.159 57.7918C288.191 58.6283 290.342 59.3454 292.732 60.182H292.852Z" fill="#3A3A47"/>
<path d="M277.913 53.3698C277.913 53.3698 278.989 53.1308 279.586 53.1308C278.391 52.1747 277.793 51.3381 277.793 50.5016C277.196 50.5016 276.718 50.6211 276.12 50.7406C276.12 51.5771 276.837 52.4137 278.033 53.4893L277.913 53.3698Z" fill="#3A3A47"/>
<path d="M421.325 70.1012C421.325 70.1012 420.25 69.6231 419.772 69.3841C419.772 70.2207 419.413 70.9377 418.457 71.5353C418.935 71.7743 419.533 72.0133 420.011 72.2524C420.967 71.5353 421.445 70.8182 421.325 69.9817V70.1012Z" fill="#3A3A47"/>
<path d="M285.084 56.3575C282.693 55.2819 280.901 54.2063 279.706 53.2503C279.108 53.2503 278.63 53.4893 278.032 53.4893C279.228 54.4454 281.14 55.521 283.53 56.7161C284.008 56.5965 284.486 56.477 285.084 56.3575Z" fill="#3A3A47"/>
<path d="M42.478 334.458C42.717 337.923 42.9561 341.389 43.3146 344.855L42.478 334.458Z" fill="#3A3A47"/>
<path d="M42.478 333.262L42 317.368C42 322.626 42 328.004 42.3585 333.262H42.478Z" fill="#3A3A47"/>
<path d="M142.508 529.259C140.715 527.825 139.042 526.391 137.369 524.837C138.444 525.674 139.401 526.63 140.476 527.466L142.627 529.139L142.508 529.259Z" fill="#3A3A47"/>
<path d="M136.652 524.359C136.652 524.359 137.01 524.718 137.249 524.837C137.01 524.718 136.891 524.479 136.652 524.359Z" fill="#3A3A47"/>
<path d="M229.273 576.705C227.958 576.227 226.643 575.868 225.448 575.39C226.524 575.749 227.599 576.107 228.675 576.466L229.392 576.705H229.273Z" fill="#3A3A47"/>
<path d="M382.484 581.007C382.484 581.007 382.006 581.127 381.767 581.246C382.006 581.246 382.245 581.127 382.484 581.007Z" fill="#3A3A47"/>
<path d="M377.465 582.322C378.899 581.963 380.333 581.605 381.648 581.246C379.736 581.724 377.704 582.322 375.792 582.8L377.465 582.441V582.322Z" fill="#3A3A47"/>
<path d="M569.996 251.996C569.996 251.996 569.757 250.92 569.518 250.322C564.259 231.32 556.969 213.035 548.006 195.706C547.767 195.228 547.528 194.75 547.169 194.272C538.087 177.063 527.211 160.69 514.663 145.751C514.304 145.273 513.945 144.915 513.587 144.436C501.038 129.498 486.936 115.993 471.519 103.923C471.041 103.564 470.683 103.205 470.205 102.847C454.668 90.8959 437.818 80.6181 419.891 72.2524C419.413 72.0133 418.935 71.7743 418.337 71.5353C400.769 63.4086 382.245 57.1941 362.765 52.8917C362.885 52.7722 363.004 52.6527 363.004 52.5332C382.843 56.1185 401.725 61.855 419.652 69.3841C420.13 69.6231 420.728 69.8622 421.206 70.1012C439.491 77.9888 456.7 87.6692 472.475 99.0226C472.954 99.3812 473.432 99.6202 473.79 99.9787C489.565 111.452 503.907 124.598 516.694 139.059C517.053 139.537 517.411 139.895 517.77 140.254C530.438 154.834 541.552 170.609 550.874 187.58C551.113 188.058 551.352 188.536 551.711 189.014C560.913 205.984 568.323 224.03 573.701 242.793C573.82 243.271 574.059 243.869 574.179 244.466C575.852 250.442 577.286 256.537 578.6 262.752L577.644 257.732C554.579 153.519 469.607 69.6231 358.104 51.6966C358.104 51.6966 356.79 52.4137 354.16 52.2942C350.336 52.1747 345.317 51.2186 343.046 50.382C342.329 50.0235 341.97 49.7845 341.851 49.5454C341.014 49.5454 340.178 49.3064 339.341 49.3064C195.212 35.2042 64.4679 136.788 44.5097 280.678C42.9561 292.39 42 303.982 42 315.575V317.487C42 310.317 42.3585 303.146 42.9561 295.856C42.9561 295.258 42.9561 294.661 43.0756 294.063C43.4341 289.88 43.9122 285.697 44.5097 281.515C46.7804 265.142 50.4852 249.247 55.5046 234.069C55.7437 233.472 55.8632 232.993 56.1022 232.396C62.5557 213.394 70.9214 195.348 81.0798 178.616C81.3188 178.138 81.6774 177.66 81.9164 177.182C92.1943 160.451 104.265 145.154 117.769 131.171C118.128 130.812 118.486 130.334 118.965 129.976C132.589 116.113 147.527 103.803 163.781 93.0471C164.259 92.6886 164.737 92.4496 165.215 92.091C181.468 81.5742 198.917 72.6109 217.202 65.6793C217.68 65.4403 218.277 65.3208 218.755 65.0818C237.041 58.2697 256.282 53.3698 276.001 50.621C276.598 50.621 277.076 50.5015 277.674 50.382C296.915 47.8723 316.754 47.2747 336.831 49.0674C336.831 49.1869 336.951 49.4259 337.19 49.5454C317.59 48.5894 298.349 49.7845 279.467 53.0112C278.869 53.0112 278.391 53.2503 277.793 53.2503C258.552 56.716 239.789 62.333 221.863 69.7427C221.385 69.9817 220.907 70.2207 220.309 70.3402C202.502 77.8693 185.532 87.3106 169.637 98.4251C169.159 98.7836 168.681 99.0226 168.322 99.3812C152.547 110.615 137.847 123.403 124.581 137.744C124.223 138.102 123.864 138.58 123.506 138.939C110.24 153.28 98.5283 169.056 88.3699 186.026C88.1309 186.504 87.7724 186.982 87.5334 187.46C77.4945 204.431 69.2483 222.716 62.9143 241.837C62.7948 242.435 62.5557 242.913 62.4362 243.51C57.5363 258.808 53.8315 274.703 51.5608 291.075C50.9633 295.258 50.4852 299.441 50.1267 303.624C50.1267 304.222 50.1267 304.819 50.0072 305.417C48.2145 325.853 48.8121 345.931 51.4413 365.291C51.4413 365.889 51.5608 366.367 51.6803 366.964C54.4291 386.325 59.329 404.969 66.141 422.776C66.3801 423.254 66.4996 423.732 66.7386 424.329C73.6702 442.017 82.3944 458.748 92.7918 474.284C93.0308 474.762 93.3894 475.121 93.6284 475.599C104.145 491.016 116.335 505.357 129.959 518.025C130.318 518.384 130.796 518.742 131.155 519.101C132.947 520.774 134.859 522.447 136.772 524.12C134.979 522.566 133.186 521.013 131.394 519.34C131.035 518.981 130.677 518.623 130.198 518.264C116.574 505.596 104.384 491.374 93.8674 475.838C93.5089 475.36 93.2698 475.001 92.9113 474.523C82.5139 458.987 73.7897 442.256 66.8581 424.568C66.6191 424.09 66.4996 423.612 66.2606 423.015C59.4485 405.327 54.6681 386.564 51.9193 367.203C51.9193 366.606 51.7998 366.128 51.6803 365.53C49.0511 346.17 48.4535 326.092 50.2462 305.656C50.2462 305.058 50.2462 304.461 50.3657 303.863C50.7242 299.68 51.2023 295.497 51.7998 291.314C54.0705 274.942 57.7753 259.047 62.6753 243.749C62.7948 243.152 63.0338 242.674 63.1533 242.076C69.4873 222.955 77.7335 204.67 87.7724 187.699C88.0114 187.221 88.3699 186.743 88.609 186.265C98.6478 169.295 110.479 153.519 123.625 139.178C123.984 138.82 124.342 138.341 124.701 137.983C137.967 123.642 152.666 110.854 168.442 99.6202C168.92 99.2617 169.398 99.0226 169.756 98.6641C185.651 87.5497 202.622 78.1084 220.429 70.4597C220.907 70.2207 221.385 69.9817 221.982 69.8622C239.789 62.333 258.552 56.8356 277.793 53.2503C278.272 53.2503 278.869 53.0112 279.467 53.0112C298.23 49.7845 317.471 48.4698 337.07 49.4259C337.31 49.5454 337.668 49.7845 338.027 50.0235C319.981 50.0235 302.174 52.0552 284.845 56.1185C284.367 56.1185 283.889 56.3575 283.291 56.477C265.484 60.7794 248.155 67.2329 231.663 75.4791C231.185 75.7182 230.706 75.9572 230.228 76.1962C213.736 84.5619 197.961 94.7203 183.141 106.432C182.663 106.791 182.305 107.149 181.827 107.388C167.127 119.22 153.503 132.724 141.074 147.424C140.715 147.902 140.357 148.261 139.998 148.739C127.689 163.558 116.694 179.811 107.133 197.14C106.894 197.618 106.655 198.097 106.296 198.575C96.8551 215.904 89.087 234.428 82.992 253.788C82.8725 254.386 82.6334 254.864 82.5139 255.461C77.853 270.878 74.2677 286.893 71.997 303.265C71.3995 307.448 70.9215 311.631 70.5629 315.814C70.5629 316.412 70.5629 317.009 70.4434 317.607C68.6508 338.043 68.8898 357.882 71.1605 377.003C71.1605 377.601 71.28 378.079 71.3995 378.676C73.7897 397.798 78.0921 416.083 84.0676 433.531C84.1871 434.009 84.4261 434.488 84.5456 434.966C90.6406 452.295 98.5283 468.548 107.97 483.487C108.209 483.965 108.448 484.323 108.806 484.801C118.367 499.74 129.362 513.245 141.791 525.315C142.149 525.674 142.508 526.032 142.867 526.391C155.415 538.342 169.278 548.739 184.217 557.224C184.695 557.463 185.054 557.702 185.532 557.941C189.236 559.973 192.941 561.885 196.766 563.797L197.961 564.395C193.778 562.483 189.834 560.332 185.771 558.181C185.293 557.941 184.934 557.702 184.456 557.463C169.517 548.978 155.654 538.581 143.225 526.63C142.867 526.271 142.508 525.913 142.149 525.674C129.72 513.723 118.726 500.099 109.284 485.279C109.045 484.801 108.806 484.443 108.448 483.965C99.0063 469.026 91.2382 452.773 85.0236 435.563C84.9041 435.085 84.6651 434.607 84.5456 434.129C78.5701 416.8 74.2677 398.515 71.8775 379.393C71.8775 378.796 71.758 378.318 71.6385 377.72C69.3678 358.599 69.1288 338.64 70.9215 318.324C70.9215 317.726 70.9215 317.129 71.041 316.531C71.3995 312.348 71.8775 308.165 72.4751 303.983C74.7458 287.61 78.3311 271.595 82.992 256.178C83.1115 255.581 83.3505 255.103 83.47 254.505C89.4455 235.145 97.3332 216.621 106.655 199.292C106.894 198.814 107.133 198.336 107.492 197.857C116.933 180.529 127.928 164.275 140.237 149.456C140.596 148.978 140.954 148.619 141.313 148.141C153.622 133.322 167.366 119.817 181.946 107.986C182.424 107.627 182.783 107.269 183.261 107.03C197.961 95.1983 213.736 85.0399 230.228 76.6742C230.706 76.4352 231.185 76.1962 231.663 75.9572C248.155 67.711 265.484 61.2574 283.171 56.9551C283.649 56.9551 284.128 56.716 284.725 56.5965C302.054 52.5332 319.742 50.382 337.788 50.382C337.907 50.382 338.027 50.382 338.266 50.621C338.624 50.7405 338.983 50.86 339.461 51.0991C324.044 52.0552 308.627 55.0429 293.688 60.0623C293.21 60.1818 292.852 60.3013 292.374 60.5404C276.957 65.7988 262.018 73.0889 247.677 82.1717C247.318 82.4107 246.84 82.6497 246.482 83.0083C232.141 92.2106 218.397 103.086 205.49 115.635C205.131 115.993 204.773 116.352 204.414 116.71C191.507 129.259 179.556 143.361 168.681 158.658C168.322 159.136 168.083 159.495 167.725 159.973C156.849 175.39 147.049 192.121 138.564 209.809C138.325 210.287 138.086 210.765 137.847 211.362C129.481 229.169 122.311 247.932 116.813 267.412C116.694 268.01 116.455 268.488 116.335 269.086C112.033 284.622 108.567 300.756 106.416 317.129C105.818 321.311 105.34 325.494 104.862 329.677C104.862 330.275 104.862 330.872 104.743 331.47C102.711 351.787 102.592 371.506 104.145 390.388C104.145 390.866 104.145 391.464 104.265 391.942C105.938 410.825 109.284 428.751 114.065 445.602C114.184 446.08 114.304 446.558 114.543 447.036C119.443 463.887 125.896 479.543 133.784 493.884C134.023 494.243 134.262 494.721 134.501 495.079C142.389 509.301 151.591 522.208 162.108 533.442C162.347 533.8 162.705 534.039 162.944 534.398C173.461 545.512 185.173 555.073 197.841 562.722C198.2 562.961 198.558 563.2 198.917 563.319C207.283 568.219 216.007 572.283 225.09 575.629C216.126 572.402 207.522 568.339 199.275 563.558C198.917 563.319 198.558 563.08 198.2 562.961C185.532 555.312 173.939 545.751 163.422 534.637C163.183 534.279 162.825 534.039 162.586 533.681C152.188 522.447 142.986 509.54 135.218 495.318C134.979 494.96 134.74 494.482 134.501 494.123C126.733 479.782 120.279 464.126 115.379 447.275C115.26 446.797 115.14 446.319 114.901 445.841C110.121 428.99 106.774 411.064 105.221 392.181C105.221 391.703 105.221 391.105 105.101 390.627C103.548 371.745 103.667 352.026 105.699 331.709C105.699 331.111 105.699 330.514 105.818 329.916C106.296 325.733 106.774 321.551 107.372 317.368C109.643 300.995 112.989 284.98 117.291 269.325C117.411 268.727 117.65 268.249 117.769 267.651C123.267 248.171 130.318 229.408 138.684 211.601C138.923 211.123 139.162 210.645 139.401 210.048C147.886 192.36 157.566 175.629 168.442 160.212C168.8 159.734 169.039 159.375 169.398 158.897C180.273 143.48 192.224 129.378 205.012 116.83C205.37 116.471 205.729 116.113 206.087 115.754C218.875 103.325 232.619 92.3301 246.84 83.1278C247.199 82.8888 247.677 82.6497 248.035 82.2912C262.377 73.2084 277.315 65.9183 292.493 60.6599C292.971 60.5404 293.33 60.3013 293.808 60.1818C308.747 55.1624 323.924 52.0552 339.341 51.0991C339.939 51.3381 340.656 51.4576 341.373 51.6966C329.183 53.4893 316.993 57.5526 305.042 63.4086C304.683 63.5281 304.325 63.7671 303.966 63.8867C291.657 69.9817 279.706 78.2279 268.113 88.0277C267.755 88.2667 267.396 88.6253 267.157 88.8643C255.565 98.7836 244.45 110.496 233.933 123.761C233.575 124.12 233.336 124.478 232.977 124.837C222.46 138.102 212.66 152.802 203.578 168.697C203.339 169.175 203.1 169.653 202.861 170.012C193.897 185.906 185.651 203.116 178.481 221.162C178.242 221.64 178.122 222.238 177.883 222.716C170.712 240.881 164.617 259.883 159.717 279.602C159.598 280.2 159.478 280.678 159.239 281.276C155.415 296.931 152.188 313.065 150.037 329.438C149.44 333.621 148.962 337.804 148.484 341.987C148.484 342.584 148.364 343.182 148.245 343.66C146.093 363.977 145.376 383.576 146.093 402.22C146.093 402.698 146.093 403.295 146.093 403.773C146.81 422.298 148.962 439.985 152.188 456.477C152.188 456.955 152.427 457.433 152.427 457.912C155.774 474.284 160.435 489.462 166.171 503.206C166.291 503.564 166.53 504.042 166.649 504.401C172.386 518.025 179.317 530.215 187.205 540.732C187.444 541.091 187.683 541.33 187.922 541.688C195.81 552.086 204.773 560.81 214.573 567.622C214.812 567.861 215.17 567.98 215.409 568.219C224.492 574.314 234.172 578.856 244.57 581.605H244.928C234.531 578.975 224.85 574.553 215.887 568.339C215.648 568.1 215.29 567.98 215.051 567.741C205.37 560.929 196.527 552.205 188.639 541.808C188.4 541.569 188.161 541.21 187.922 540.971C180.154 530.454 173.342 518.264 167.605 504.64C167.486 504.281 167.247 503.803 167.127 503.445C161.51 489.701 156.849 474.523 153.622 458.151C153.622 457.673 153.383 457.194 153.383 456.716C150.157 440.344 148.005 422.656 147.288 404.132C147.288 403.654 147.288 403.056 147.288 402.578C146.691 383.935 147.288 364.335 149.559 344.138C149.559 343.54 149.679 342.943 149.798 342.465C150.276 338.282 150.754 334.099 151.352 329.916C153.622 313.543 156.73 297.409 160.554 281.754C160.674 281.156 160.793 280.678 161.032 280.08C165.932 260.361 172.027 241.359 179.198 223.194C179.437 222.716 179.556 222.118 179.795 221.64C186.966 203.594 195.092 186.385 204.056 170.37C204.295 169.892 204.534 169.414 204.773 169.056C213.736 153.161 223.536 138.461 233.933 125.195C234.172 124.837 234.531 124.478 234.77 124.12C245.167 110.974 256.282 99.2617 267.755 89.2228C268.113 88.9838 268.352 88.6253 268.711 88.3862C280.184 78.4669 292.135 70.3402 304.325 64.1257C304.683 63.8867 305.042 63.7671 305.4 63.6476C317.232 57.7916 329.302 53.7283 341.373 51.8161C342.09 52.0552 342.926 52.1747 343.763 52.4137C335.397 55.1624 326.912 59.9428 318.546 66.6354C318.307 66.8744 318.068 66.9939 317.829 67.2329C309.225 74.1645 300.739 83.1278 292.374 93.7642C292.135 94.1227 291.896 94.3617 291.657 94.7203C283.291 105.476 275.284 117.905 267.516 131.649C267.277 132.007 267.038 132.485 266.799 132.844C259.03 146.707 251.74 162.004 244.809 178.377C244.57 178.855 244.45 179.333 244.211 179.811C237.399 196.304 231.065 213.872 225.329 232.276C225.209 232.754 224.97 233.352 224.85 233.83C219.234 252.235 214.214 271.595 209.912 291.434C209.792 292.032 209.673 292.629 209.553 293.107C206.207 308.882 203.339 325.136 201.068 341.509C200.47 345.692 199.992 349.874 199.395 354.057C199.395 354.655 199.275 355.252 199.156 355.73C196.766 375.928 195.451 395.408 195.092 413.812C195.092 414.29 195.092 414.888 195.092 415.366C194.734 433.651 195.451 450.98 197.005 466.994C197.005 467.472 197.005 467.95 197.124 468.309C198.678 484.204 201.188 498.904 204.534 512.05C204.534 512.408 204.773 512.767 204.773 513.125C208.119 526.152 212.302 537.744 217.202 547.664C217.321 547.903 217.441 548.261 217.68 548.5C222.58 558.181 228.316 566.188 234.65 572.283C234.77 572.402 235.009 572.641 235.128 572.761C241.582 578.617 248.633 582.561 256.282 584.353C256.401 584.353 256.64 584.353 256.76 584.353H257.118C257.118 584.353 256.76 584.353 256.521 584.353C248.992 582.68 241.94 578.736 235.606 572.88C235.487 572.761 235.248 572.522 235.009 572.402C228.794 566.427 223.177 558.42 218.277 548.739C218.158 548.5 218.038 548.142 217.919 547.903C213.139 538.103 209.075 526.51 205.729 513.484C205.729 513.125 205.49 512.767 205.49 512.408C202.263 499.262 199.873 484.562 198.319 468.667C198.319 468.189 198.319 467.711 198.2 467.353C196.766 451.338 196.168 434.01 196.527 415.724C196.527 415.246 196.527 414.649 196.527 414.171C196.885 395.766 198.319 376.406 200.59 356.089C200.59 355.491 200.709 354.894 200.829 354.416C201.307 350.233 201.905 346.05 202.383 341.867C204.653 325.494 207.522 309.241 210.748 293.466C210.748 292.868 210.987 292.39 211.107 291.792C215.29 271.954 220.309 252.593 225.926 234.189C226.046 233.711 226.285 233.113 226.404 232.635C232.021 214.23 238.355 196.662 245.167 180.17C245.406 179.692 245.526 179.214 245.765 178.736C252.577 162.363 259.867 147.066 267.516 133.083C267.755 132.724 267.994 132.246 268.113 131.888C275.762 118.025 283.769 105.596 292.015 94.8398C292.254 94.4812 292.493 94.2422 292.732 93.8837C300.978 83.2473 309.344 74.284 317.949 67.2329C318.188 66.9939 318.427 66.8744 318.666 66.6354C326.912 59.9428 335.278 55.0429 343.524 52.2942C344.361 52.4137 345.317 52.6527 346.153 52.7722C341.97 56.238 337.549 61.855 333.127 69.3841C333.007 69.6231 332.888 69.8622 332.768 69.9817C328.107 77.7498 323.446 87.4301 318.666 98.6641C318.546 99.0226 318.427 99.2617 318.307 99.6202C313.527 110.974 308.747 124 304.086 138.461C303.966 138.82 303.847 139.298 303.727 139.656C299.066 154.117 294.405 169.892 289.984 186.743C289.984 187.221 289.744 187.699 289.625 188.177C285.203 205.028 280.901 223.074 276.837 241.837C276.837 242.315 276.598 242.913 276.479 243.391C272.416 262.154 268.591 281.634 265.245 301.712C265.245 302.309 265.006 302.907 265.006 303.385C262.257 319.28 259.747 335.533 257.477 351.906C256.879 356.089 256.282 360.272 255.804 364.455C255.804 365.052 255.684 365.65 255.565 366.128C252.935 386.325 250.904 405.566 249.47 423.851C249.47 424.329 249.47 424.927 249.35 425.405C247.916 443.57 246.96 460.541 246.482 476.197C246.482 476.675 246.482 477.153 246.482 477.511C246.123 493.047 246.243 507.269 246.84 519.937C246.84 520.296 246.84 520.654 246.84 521.013C247.438 533.561 248.633 544.556 250.306 553.759C250.306 553.998 250.306 554.237 250.426 554.595C252.099 563.678 254.25 570.968 256.879 576.346C256.879 576.466 256.999 576.705 257.118 576.824C259.747 581.963 262.855 585.19 266.44 586.146C266.44 586.146 266.679 586.146 266.799 586.146C266.918 586.146 267.157 586.146 267.277 586.146H267.516C267.516 586.146 267.277 586.146 267.038 586.146H266.799C263.333 585.19 260.345 582.083 257.835 576.944C257.835 576.824 257.716 576.585 257.596 576.466C255.087 571.207 253.055 563.917 251.501 554.715C251.501 554.476 251.501 554.237 251.382 553.878C249.828 544.676 248.753 533.681 248.155 521.132C248.155 520.774 248.155 520.415 248.155 520.057C247.557 507.389 247.557 493.167 248.035 477.631C248.035 477.153 248.035 476.794 248.035 476.316C248.513 460.66 249.47 443.69 251.023 425.524C251.023 425.046 251.023 424.449 251.143 423.971C252.696 405.805 254.728 386.564 257.357 366.247C257.357 365.65 257.477 365.052 257.596 364.574C258.074 360.391 258.672 356.328 259.269 352.026C261.54 335.653 264.05 319.399 266.799 303.504C266.799 302.907 267.038 302.309 267.157 301.831C270.623 281.873 274.328 262.273 278.272 243.51C278.272 242.913 278.511 242.435 278.63 241.837C282.574 223.074 286.876 205.148 291.298 188.177C291.418 187.699 291.537 187.221 291.657 186.743C296.079 169.892 300.62 154.117 305.161 139.537C305.281 139.059 305.4 138.7 305.52 138.341C310.181 124 314.842 110.854 319.383 99.5007C319.503 99.1421 319.622 98.9031 319.742 98.5446C324.402 87.1911 328.944 77.5108 333.485 69.7427C333.605 69.5036 333.724 69.2646 333.844 69.0256C338.266 61.616 342.448 55.999 346.631 52.4137C347.587 52.5332 348.543 52.7722 349.38 52.8917C349.5 57.0746 349.38 63.2891 349.022 71.4158C349.022 71.6548 349.022 71.8938 349.022 72.1329C348.543 80.4986 347.826 90.7764 346.87 102.727C346.87 103.086 346.87 103.445 346.87 103.803C345.914 115.754 344.6 129.378 343.046 144.197C343.046 144.675 343.046 145.034 342.927 145.512C341.373 160.451 339.7 176.704 337.668 193.914C337.668 194.392 337.668 194.87 337.549 195.348C335.636 212.677 333.485 230.962 331.095 249.964C331.095 250.561 330.975 251.04 330.856 251.637C328.466 270.639 325.956 290.358 323.327 310.556C323.327 311.153 323.207 311.751 323.088 312.348C320.937 328.363 318.785 344.616 316.515 361.108C315.917 365.291 315.32 369.474 314.722 373.657C314.722 374.254 314.603 374.852 314.483 375.33C311.615 395.527 308.866 414.649 306.117 432.695C306.117 433.173 305.998 433.651 305.878 434.249C303.249 452.175 300.62 468.906 298.11 484.323C298.11 484.801 297.991 485.16 297.871 485.638C295.361 500.935 293.091 514.798 290.94 526.988C290.94 527.347 290.94 527.705 290.701 528.064C288.549 540.254 286.518 550.771 284.725 559.376C284.725 559.615 284.725 559.854 284.606 560.093C282.813 568.697 281.259 575.39 279.945 580.17C279.945 580.29 279.945 580.409 279.945 580.529C278.63 585.07 277.554 587.7 276.718 587.939H276.957C276.957 587.939 276.957 587.939 277.076 587.939C278.033 587.7 279.228 585.19 280.662 580.529C280.662 580.409 280.662 580.29 280.662 580.17C282.096 575.509 283.769 568.697 285.681 560.212C285.681 559.973 285.681 559.734 285.801 559.495C287.713 550.771 289.744 540.254 292.015 528.183C292.015 527.825 292.135 527.466 292.254 527.108C294.525 514.918 296.915 501.055 299.425 485.757C299.425 485.279 299.544 484.921 299.664 484.443C302.174 469.145 304.803 452.414 307.551 434.488C307.551 434.009 307.671 433.531 307.791 432.934C310.539 414.888 313.288 395.766 316.156 375.569C316.156 374.972 316.276 374.374 316.395 373.896C316.993 369.833 317.59 365.65 318.188 361.347C320.459 344.974 322.61 328.602 324.761 312.587C324.761 311.99 324.88 311.392 325 310.795C327.629 290.717 330.139 270.998 332.41 251.876C332.41 251.279 332.529 250.801 332.649 250.203C334.919 231.201 337.07 212.916 338.863 195.587C338.863 195.109 338.863 194.631 338.983 194.153C340.895 176.943 342.568 160.69 344.002 145.751C344.002 145.273 344.002 144.915 344.002 144.436C345.436 129.498 346.631 115.993 347.468 104.042C347.468 103.684 347.468 103.325 347.468 102.966C348.304 91.0154 349.022 80.7376 349.261 72.3719C349.261 72.1329 349.261 71.8938 349.261 71.6548C349.5 63.5281 349.619 57.3136 349.261 53.1307C350.217 53.2503 351.173 53.3698 352.129 53.4893C356.79 58.1502 360.973 64.9622 364.677 73.4475C364.677 73.6865 364.916 73.9255 365.036 74.1645C368.86 83.0083 372.087 93.7642 374.955 106.074C374.955 106.432 375.075 106.791 375.194 107.149C377.943 119.578 380.214 133.561 381.887 148.739C381.887 149.217 381.887 149.575 382.006 150.053C383.679 165.351 384.875 181.963 385.472 199.411C385.472 199.889 385.472 200.367 385.472 200.965C386.07 218.533 386.07 237.057 385.472 256.298C385.472 256.896 385.472 257.374 385.472 257.971C384.875 277.212 383.679 297.051 381.887 317.248C381.887 317.846 381.887 318.443 381.767 319.041C380.333 335.175 378.421 351.428 376.15 367.92C375.553 372.103 374.955 376.286 374.358 380.469C374.358 381.067 374.238 381.664 374.119 382.142C371.011 402.22 367.546 421.341 363.602 439.268C363.602 439.746 363.363 440.224 363.243 440.822C359.299 458.629 354.997 475.121 350.456 490.299C350.336 490.777 350.217 491.135 350.097 491.613C345.556 506.672 340.656 520.176 335.636 532.127C335.517 532.486 335.397 532.844 335.158 533.083C330.139 544.915 325 555.073 319.742 563.319C319.622 563.558 319.383 563.797 319.263 564.036C314.005 572.283 308.627 578.497 303.369 582.8C303.249 582.919 303.13 583.039 302.891 583.158C297.632 587.341 292.254 589.373 287.115 589.134C286.996 589.134 286.757 589.134 286.637 589.134C286.518 589.134 286.279 589.134 286.159 589.134H286.398C286.398 589.134 286.757 589.134 286.876 589.134C286.996 589.134 287.235 589.134 287.354 589.134C292.613 589.373 297.991 587.341 303.488 583.158C303.608 583.158 303.847 582.919 303.966 582.8C309.344 578.617 314.842 572.283 320.22 564.036C320.339 563.797 320.578 563.558 320.698 563.319C326.076 555.073 331.334 544.915 336.473 533.083C336.592 532.725 336.712 532.366 336.951 532.127C342.09 520.176 346.87 506.672 351.531 491.613C351.651 491.135 351.77 490.777 351.89 490.299C356.551 475.24 360.853 458.629 364.797 440.822C364.797 440.344 365.036 439.866 365.155 439.268C369.099 421.461 372.685 402.339 375.672 382.142C375.672 381.545 375.792 380.947 375.911 380.469C376.509 376.406 377.106 372.223 377.704 367.92C379.975 351.548 381.767 335.175 383.321 319.041C383.321 318.443 383.321 317.846 383.44 317.248C385.233 297.051 386.428 277.093 387.026 257.971C387.026 257.374 387.026 256.896 387.026 256.298C387.504 237.057 387.504 218.533 386.906 200.965C386.906 200.487 386.906 200.009 386.906 199.411C386.189 181.843 384.994 165.351 383.201 149.934C383.201 149.456 383.201 149.097 383.082 148.619C381.289 133.322 378.899 119.339 376.031 106.91C376.031 106.552 375.911 106.193 375.792 105.835C372.924 93.5252 369.458 82.7693 365.514 73.9255C365.514 73.6865 365.275 73.4475 365.155 73.2084C361.331 64.6037 357.029 57.9111 352.248 53.1307C353.204 53.1307 354.16 53.2503 354.997 53.3698C363.96 58.3892 372.206 65.4403 379.975 74.284C380.214 74.5231 380.453 74.7621 380.692 75.1206C388.579 84.3229 395.75 95.3178 402.323 107.986C402.443 108.344 402.682 108.703 402.921 109.061C409.374 121.73 414.991 135.951 419.891 151.488C420.011 151.966 420.13 152.324 420.25 152.802C425.03 168.339 428.974 185.189 432.081 202.877C432.081 203.355 432.201 203.953 432.32 204.431C435.308 222.238 437.459 240.881 438.535 260.242C438.535 260.839 438.535 261.317 438.535 261.915C439.61 281.276 439.61 301.234 438.535 321.55C438.535 322.148 438.535 322.746 438.535 323.343C437.698 339.477 436.144 355.85 433.874 372.223C433.276 376.406 432.679 380.589 431.962 384.771C431.962 385.369 431.723 385.966 431.723 386.444C428.376 406.522 424.193 425.644 419.054 443.331C418.935 443.809 418.815 444.287 418.576 444.885C413.437 462.572 407.581 478.945 401.008 494.004C400.769 494.482 400.65 494.84 400.411 495.318C393.838 510.137 386.548 523.523 378.78 535.235C378.541 535.593 378.302 535.832 378.062 536.191C370.294 547.783 362.048 557.702 353.443 565.71C353.204 565.949 352.965 566.188 352.726 566.427C344.122 574.314 335.158 580.409 325.956 584.353C325.717 584.353 325.478 584.592 325.12 584.712C316.037 588.536 306.834 590.209 297.513 589.731H297.871C307.312 590.209 316.634 588.536 325.717 584.712C325.956 584.712 326.195 584.473 326.554 584.353C335.875 580.409 344.958 574.434 353.682 566.427C353.921 566.188 354.16 565.949 354.399 565.71C363.124 557.702 371.489 547.783 379.258 536.191C379.497 535.832 379.736 535.474 379.975 535.235C387.743 523.523 395.152 510.137 401.725 495.318C401.965 494.84 402.084 494.482 402.323 494.004C408.896 479.065 414.872 462.692 420.011 445.004C420.13 444.526 420.25 444.048 420.489 443.451C425.628 425.644 429.81 406.642 433.157 386.564C433.157 385.966 433.396 385.369 433.396 384.891C434.113 380.828 434.71 376.645 435.308 372.342C437.579 355.969 439.132 339.597 439.969 323.463C439.969 322.865 439.969 322.268 439.969 321.67C440.925 301.353 440.925 281.395 439.849 262.034C439.849 261.437 439.849 260.959 439.849 260.361C438.654 241.001 436.503 222.357 433.515 204.55C433.515 204.072 433.396 203.594 433.276 202.996C430.169 185.309 426.106 168.458 421.206 152.922C421.086 152.444 420.967 152.085 420.728 151.607C415.828 136.071 409.972 121.849 403.518 109.181C403.279 108.822 403.16 108.464 402.921 108.105C396.348 95.4373 389.057 84.4424 381.05 75.2401C380.811 75.0011 380.572 74.7621 380.333 74.4035C372.565 65.5598 364.08 58.5087 354.997 53.4893C355.236 53.4893 355.475 53.4893 355.714 53.4893C356.312 53.4893 356.909 53.4893 357.507 53.4893C370.294 58.6282 382.484 65.7988 393.838 74.7621C394.196 75.0011 394.555 75.2401 394.794 75.5986C406.386 84.9204 417.142 96.0349 426.942 108.703C427.181 109.061 427.54 109.42 427.779 109.779C437.578 122.566 446.303 136.907 453.951 152.444C454.19 152.922 454.429 153.28 454.549 153.758C462.198 169.414 468.651 186.265 474.029 204.072C474.149 204.55 474.388 205.028 474.507 205.626C479.766 223.433 483.709 242.196 486.339 261.556C486.339 262.154 486.458 262.632 486.578 263.23C489.087 282.59 490.283 302.668 490.043 322.985C490.043 323.582 490.043 324.18 490.043 324.777C489.685 340.911 488.49 357.284 486.219 373.657C485.622 377.84 485.024 382.023 484.307 386.086C484.307 386.684 484.068 387.281 484.068 387.759C480.602 407.837 475.583 426.839 469.488 444.646C469.368 445.124 469.129 445.602 469.01 446.2C462.795 463.887 455.386 480.26 447.02 495.079C446.781 495.557 446.542 495.916 446.303 496.394C437.818 511.213 428.376 524.479 418.218 536.191C417.979 536.549 417.62 536.908 417.381 537.147C407.103 548.62 395.989 558.539 384.397 566.427C384.038 566.666 383.679 566.905 383.44 567.144C371.728 575.031 359.419 580.887 346.751 584.712C346.392 584.712 346.034 584.951 345.675 585.07C336.114 587.819 326.434 589.492 316.515 589.851H317.112C326.912 589.492 336.592 587.819 346.153 585.07C346.512 585.07 346.87 584.831 347.229 584.712C360.016 580.887 372.326 574.912 384.157 567.144C384.516 566.905 384.875 566.666 385.114 566.427C396.826 558.539 407.94 548.62 418.337 537.147C418.576 536.788 418.935 536.549 419.174 536.191C429.452 524.598 439.013 511.213 447.498 496.394C447.737 495.916 447.976 495.557 448.215 495.079C456.581 480.14 464.11 463.768 470.324 446.2C470.444 445.721 470.683 445.243 470.802 444.646C476.897 426.958 481.917 407.837 485.383 387.759C485.383 387.162 485.622 386.564 485.622 386.086C486.339 382.023 486.936 377.84 487.534 373.657C489.804 357.284 491 340.911 491.358 324.777C491.358 324.18 491.358 323.582 491.358 322.985C491.597 302.668 490.402 282.71 487.892 263.23C487.892 262.632 487.773 262.154 487.653 261.556C485.024 242.196 480.961 223.433 475.702 205.626C475.583 205.148 475.344 204.67 475.224 204.072C469.846 186.265 463.273 169.414 455.625 153.758C455.386 153.28 455.146 152.922 454.907 152.444C447.139 136.907 438.296 122.566 428.496 109.779C428.257 109.42 427.898 109.061 427.659 108.703C417.74 96.0349 406.864 84.8009 395.272 75.5986C394.913 75.3596 394.555 75.1206 394.316 74.7621C382.843 65.7988 370.653 58.6282 357.746 53.4893C358.463 53.4893 359.18 53.4893 359.658 53.4893C375.553 58.5087 390.731 65.6793 404.952 74.5231C405.43 74.7621 405.789 75.0011 406.147 75.3596C420.728 84.5619 434.232 95.6763 446.781 108.225C447.139 108.583 447.498 108.942 447.856 109.301C460.285 121.969 471.519 136.19 481.439 151.727C481.678 152.205 482.036 152.563 482.275 153.041C492.195 168.578 500.68 185.428 507.731 203.116C507.97 203.594 508.09 204.072 508.329 204.67C515.26 222.477 520.758 241.12 524.701 260.481C524.701 261.078 524.94 261.556 525.06 262.154C528.765 281.515 530.916 301.473 531.155 321.79C531.155 322.387 531.155 322.985 531.155 323.582C531.274 339.716 530.318 356.089 528.048 372.462C527.45 376.645 526.853 380.828 526.135 384.891C526.135 385.488 525.896 386.086 525.777 386.564C522.072 406.642 516.694 425.763 509.763 443.451C509.524 443.929 509.404 444.407 509.165 445.004C502.114 462.692 493.509 479.065 483.709 494.004C483.47 494.482 483.112 494.84 482.873 495.318C472.954 510.137 461.839 523.523 449.53 535.235C449.171 535.593 448.812 535.952 448.454 536.191C436.144 547.783 422.879 557.702 408.777 565.71C408.418 565.949 407.94 566.188 407.581 566.427C393.479 574.314 378.541 580.409 363.124 584.353C362.646 584.353 362.287 584.592 361.809 584.712C354.758 586.504 347.587 587.7 340.297 588.656H341.014C348.185 587.7 355.236 586.385 362.168 584.712C362.646 584.712 363.004 584.473 363.482 584.353C379.019 580.409 393.957 574.314 408.179 566.427C408.538 566.188 409.016 565.949 409.374 565.71C423.476 557.702 436.861 547.783 449.171 536.191C449.53 535.832 449.888 535.474 450.247 535.235C462.556 523.523 473.671 510.137 483.709 495.318C483.948 494.84 484.307 494.482 484.546 494.004C494.465 479.065 502.951 462.692 510.002 444.885C510.241 444.407 510.36 443.929 510.599 443.331C517.531 425.524 523.028 406.522 526.733 386.444C526.733 385.847 526.972 385.249 527.092 384.771C527.809 380.708 528.526 376.525 529.004 372.342C531.274 355.969 532.35 339.597 532.111 323.463C532.111 322.865 532.111 322.268 532.111 321.67C531.872 301.353 529.721 281.395 525.897 262.034C525.897 261.437 525.657 260.959 525.538 260.361C521.714 241.001 516.097 222.357 509.046 204.55C508.807 204.072 508.687 203.594 508.448 202.996C501.397 185.309 492.792 168.458 482.873 152.922C482.634 152.444 482.275 152.085 482.036 151.607C472.117 136.071 460.763 121.849 448.334 109.181C447.976 108.822 447.617 108.464 447.259 108.105C434.71 95.5568 421.086 84.4424 406.506 75.2401C406.028 75.0011 405.669 74.7621 405.311 74.4035C390.97 65.5598 375.792 58.5087 359.897 53.4893C360.494 53.4893 360.973 53.4893 361.331 53.2503C379.497 58.0307 396.706 64.7232 413.079 73.328C413.557 73.567 414.035 73.806 414.513 74.045C431.244 83.0083 446.781 93.7642 461.122 106.074C461.481 106.432 461.959 106.791 462.317 107.149C476.658 119.578 489.565 133.561 501.158 148.858C501.516 149.336 501.755 149.695 502.114 150.173C513.587 165.47 523.626 182.082 531.992 199.65C532.231 200.128 532.47 200.606 532.709 201.084C540.955 218.652 547.528 237.296 552.308 256.417C552.428 257.015 552.547 257.493 552.667 258.091C557.328 277.332 560.076 297.17 560.674 317.487C560.674 318.085 560.674 318.682 560.674 319.28C561.152 335.414 560.315 351.667 558.045 368.159C557.447 372.342 556.85 376.525 556.013 380.708C556.013 381.306 555.774 381.903 555.655 382.381C551.83 402.459 546.094 421.58 538.445 439.507C538.206 439.985 537.967 440.463 537.848 441.061C530.199 458.868 520.758 475.36 509.882 490.418C509.524 490.896 509.285 491.255 508.926 491.733C497.931 506.672 485.502 520.296 471.878 532.127C471.519 532.486 471.041 532.844 470.683 533.083C456.939 544.915 442.12 554.954 426.225 563.319C425.747 563.558 425.269 563.797 424.91 564.036C411.047 571.088 396.587 576.824 381.528 581.007C396.706 576.824 411.406 571.207 425.269 564.036C425.747 563.797 426.225 563.558 426.584 563.319C442.478 555.073 457.417 544.915 471.161 533.083C471.519 532.725 471.997 532.366 472.356 532.127C485.98 520.176 498.529 506.672 509.404 491.613C509.763 491.135 510.002 490.777 510.36 490.299C521.236 475.24 530.677 458.629 538.326 440.941C538.565 440.463 538.804 439.985 538.923 439.387C546.452 421.58 552.308 402.459 556.133 382.262C556.133 381.664 556.372 381.067 556.491 380.589C557.208 376.525 557.925 372.342 558.523 368.04C560.793 351.667 561.63 335.294 561.152 319.16C561.152 318.563 561.152 317.965 561.152 317.368C560.435 297.17 557.686 277.212 553.025 257.971C552.906 257.374 552.786 256.896 552.667 256.298C547.886 237.057 541.313 218.533 533.067 200.965C532.828 200.487 532.589 200.009 532.35 199.411C523.984 181.843 513.945 165.231 502.473 149.934C502.114 149.456 501.875 149.097 501.516 148.619C489.924 133.322 476.897 119.339 462.556 106.91C462.198 106.552 461.72 106.193 461.361 105.835C446.9 93.5252 431.244 82.7693 414.513 73.806C414.035 73.567 413.557 73.328 413.079 73.0889C396.706 64.4842 379.377 57.7916 361.212 53.0112C361.57 53.0112 361.809 52.7722 362.048 52.6527C381.528 56.9551 400.052 63.1696 417.62 71.2963C418.098 71.5353 418.696 71.7743 419.174 72.0133C437.1 80.4986 453.951 90.7764 469.368 102.727C469.846 103.086 470.205 103.445 470.683 103.803C486.1 115.874 500.202 129.378 512.75 144.317C513.109 144.795 513.467 145.154 513.826 145.632C526.255 160.57 537.13 176.943 546.213 194.153C546.452 194.631 546.691 195.109 546.93 195.587C555.894 212.916 563.184 231.201 568.442 250.203L568.92 251.876C574.059 270.878 577.166 290.717 578.122 310.795C578.122 311.392 578.122 311.99 578.122 312.587C578.72 328.602 578.122 344.974 575.732 361.347C575.135 365.53 574.418 369.713 573.701 373.896C573.701 374.493 573.462 375.091 573.342 375.569C569.518 395.766 563.423 414.888 555.535 432.934C555.296 433.412 555.057 434.009 554.818 434.488C546.811 452.414 536.891 469.145 525.418 484.443C525.06 484.921 524.821 485.279 524.462 485.757C512.87 501.055 499.724 514.798 485.263 526.988C484.905 527.347 484.427 527.705 484.068 528.064C480.841 530.693 477.614 533.322 474.268 535.832C477.734 533.322 480.961 530.693 484.307 527.944C484.785 527.586 485.144 527.227 485.502 526.869C499.963 514.679 513.228 500.816 524.821 485.638C525.179 485.16 525.538 484.801 525.777 484.323C537.25 469.026 547.169 452.295 555.176 434.368C555.415 433.89 555.655 433.412 555.894 432.814C563.781 414.888 569.876 395.647 573.701 375.45C573.701 374.852 573.94 374.254 574.059 373.776C574.776 369.594 575.493 365.53 576.091 361.228C578.361 344.855 579.078 328.602 578.481 312.468C578.481 311.87 578.481 311.273 578.481 310.675C577.525 290.597 574.418 270.759 569.279 251.757L569.996 251.996Z" fill="#3A3A47"/>
<path d="M474.985 536.071C473.551 537.147 471.997 538.342 470.444 539.418C471.997 538.342 473.431 537.266 474.985 536.071Z" fill="#3A3A47"/>
<path d="M468.771 540.613C468.771 540.613 469.368 540.135 469.727 539.896C468.173 540.971 466.5 542.166 464.946 543.242L468.771 540.613Z" fill="#3A3A47"/>
<path d="M470.444 539.298C470.444 539.298 469.846 539.656 469.607 539.895C469.846 539.656 470.205 539.537 470.444 539.298Z" fill="#3A3A47"/>
<path d="M579.676 267.293L582.425 284.98C581.708 279.005 580.871 273.149 579.676 267.293Z" fill="#3A3A47"/>
<path d="M578.839 262.632L579.317 264.783C579.198 264.066 579.078 263.349 578.839 262.632Z" fill="#3A3A47"/>
<path d="M579.557 266.456L579.198 264.783C579.318 265.62 579.557 266.456 579.676 267.293V266.456H579.557Z" fill="#3A3A47"/>
<g filter="url(#filter0_f_514_22)">
<circle cx="554" cy="600" r="48" fill="url(#paint0_radial_514_22)"/>
</g>
<g filter="url(#filter1_f_514_22)">
<circle cx="52" cy="52" r="32" fill="url(#paint1_radial_514_22)"/>
</g>
<defs>
<filter id="filter0_f_514_22" x="486" y="532" width="136" height="136" filterUnits="userSpaceOnUse" color-interpolation-filters="sRGB">
<feFlood flood-opacity="0" result="BackgroundImageFix"/>
<feBlend mode="normal" in="SourceGraphic" in2="BackgroundImageFix" result="shape"/>
<feGaussianBlur stdDeviation="10" result="effect1_foregroundBlur_514_22"/>
</filter>
<filter id="filter1_f_514_22" x="0" y="0" width="104" height="104" filterUnits="userSpaceOnUse" color-interpolation-filters="sRGB">
<feFlood flood-opacity="0" result="BackgroundImageFix"/>
<feBlend mode="normal" in="SourceGraphic" in2="BackgroundImageFix" result="shape"/>
<feGaussianBlur stdDeviation="10" result="effect1_foregroundBlur_514_22"/>
</filter>
<radialGradient id="paint0_radial_514_22" cx="0" cy="0" r="1" gradientUnits="userSpaceOnUse" gradientTransform="translate(547.2 545.2) rotate(87.7365) scale(101.279 1193.11)">
<stop stop-color="#494955"/>
<stop offset="1" stop-color="#141414"/>
</radialGradient>
<radialGradient id="paint1_radial_514_22" cx="0" cy="0" r="1" gradientUnits="userSpaceOnUse" gradientTransform="translate(47.4667 15.4666) rotate(87.7365) scale(67.5194 795.408)">
<stop stop-color="#494955"/>
<stop offset="1" stop-color="#141414"/>
</radialGradient>
</defs>
</svg>
